<svg viewBox="0 0 1091.888916015625 400" xmlns="http://www.w3.org/2000/svg"><g><g><g><g><g><line x1="51.5625" y1="377" x2="46.5625" y2="377" style="visibility: inherit;" fill="rgb(0, 0, 0)" stroke="rgb(204, 204, 204)" stroke-width="1px"></line><line x1="51.5625" y1="342.7272727272727" x2="46.5625" y2="342.7272727272727" style="visibility: inherit;" fill="rgb(0, 0, 0)" stroke="rgb(204, 204, 204)" stroke-width="1px"></line><line x1="51.5625" y1="308.4545454545455" x2="46.5625" y2="308.4545454545455" style="visibility: inherit;" fill="rgb(0, 0, 0)" stroke="rgb(204, 204, 204)" stroke-width="1px"></line><line x1="51.5625" y1="274.1818181818182" x2="46.5625" y2="274.1818181818182" style="visibility: inherit;" fill="rgb(0, 0, 0)" stroke="rgb(204, 204, 204)" stroke-width="1px"></line><line x1="51.5625" y1="239.9090909090909" x2="46.5625" y2="239.9090909090909" style="visibility: inherit;" fill="rgb(0, 0, 0)" stroke="rgb(204, 204, 204)" stroke-width="1px"></line><line x1="51.5625" y1="205.63636363636363" x2="46.5625" y2="205.63636363636363" style="visibility: inherit;" fill="rgb(0, 0, 0)" stroke="rgb(204, 204, 204)" stroke-width="1px"></line><line x1="51.5625" y1="171.36363636363635" x2="46.5625" y2="171.36363636363635" style="visibility: inherit;" fill="rgb(0, 0, 0)" stroke="rgb(204, 204, 204)" stroke-width="1px"></line><line x1="51.5625" y1="137.09090909090907" x2="46.5625" y2="137.09090909090907" style="visibility: inherit;" fill="rgb(0, 0, 0)" stroke="rgb(204, 204, 204)" stroke-width="1px"></line><line x1="51.5625" y1="102.81818181818181" x2="46.5625" y2="102.81818181818181" style="visibility: inherit;" fill="rgb(0, 0, 0)" stroke="rgb(204, 204, 204)" stroke-width="1px"></line><line x1="51.5625" y1="68.54545454545453" x2="46.5625" y2="68.54545454545453" style="visibility: inherit;" fill="rgb(0, 0, 0)" stroke="rgb(204, 204, 204)" stroke-width="1px"></line><line x1="51.5625" y1="34.272727272727245" x2="46.5625" y2="34.272727272727245" style="visibility: inherit;" fill="rgb(0, 0, 0)" stroke="rgb(204, 204, 204)" stroke-width="1px"></line><line x1="51.5625" y1="0" x2="46.5625" y2="0" style="visibility: inherit;" fill="rgb(0, 0, 0)" stroke="rgb(204, 204, 204)" stroke-width="1px"></line></g><g transform="translate(41.5625, 0)"><text x="0" y="377" dx="0em" dy="0.3em" style="text-anchor: end; visibility: hidden; font-family: Roboto, sans-serif; font-size: 12px; font-weight: 200;" fill="rgb(255, 255, 255)" stroke="none" stroke-width="1px">0.02</text><text x="0" y="342.7272727272727" dx="0em" dy="0.3em" style="text-anchor: end; visibility: inherit; font-family: Roboto, sans-serif; font-size: 12px; font-weight: 200;" fill="rgb(255, 255, 255)" stroke="none" stroke-width="1px">0.04</text><text x="0" y="308.4545454545455" dx="0em" dy="0.3em" style="text-anchor: end; visibility: inherit; font-family: Roboto, sans-serif; font-size: 12px; font-weight: 200;" fill="rgb(255, 255, 255)" stroke="none" stroke-width="1px">0.06</text><text x="0" y="274.1818181818182" dx="0em" dy="0.3em" style="text-anchor: end; visibility: inherit; font-family: Roboto, sans-serif; font-size: 12px; font-weight: 200;" fill="rgb(255, 255, 255)" stroke="none" stroke-width="1px">0.08</text><text x="0" y="239.9090909090909" dx="0em" dy="0.3em" style="text-anchor: end; visibility: inherit; font-family: Roboto, sans-serif; font-size: 12px; font-weight: 200;" fill="rgb(255, 255, 255)" stroke="none" stroke-width="1px">0.1</text><text x="0" y="205.63636363636363" dx="0em" dy="0.3em" style="text-anchor: end; visibility: inherit; font-family: Roboto, sans-serif; font-size: 12px; font-weight: 200;" fill="rgb(255, 255, 255)" stroke="none" stroke-width="1px">0.12</text><text x="0" y="171.36363636363635" dx="0em" dy="0.3em" style="text-anchor: end; visibility: inherit; font-family: Roboto, sans-serif; font-size: 12px; font-weight: 200;" fill="rgb(255, 255, 255)" stroke="none" stroke-width="1px">0.14</text><text x="0" y="137.09090909090907" dx="0em" dy="0.3em" style="text-anchor: end; visibility: inherit; font-family: Roboto, sans-serif; font-size: 12px; font-weight: 200;" fill="rgb(255, 255, 255)" stroke="none" stroke-width="1px">0.16</text><text x="0" y="102.81818181818181" dx="0em" dy="0.3em" style="text-anchor: end; visibility: inherit; font-family: Roboto, sans-serif; font-size: 12px; font-weight: 200;" fill="rgb(255, 255, 255)" stroke="none" stroke-width="1px">0.18</text><text x="0" y="68.54545454545453" dx="0em" dy="0.3em" style="text-anchor: end; visibility: inherit; font-family: Roboto, sans-serif; font-size: 12px; font-weight: 200;" fill="rgb(255, 255, 255)" stroke="none" stroke-width="1px">0.2</text><text x="0" y="34.272727272727245" dx="0em" dy="0.3em" style="text-anchor: end; visibility: inherit; font-family: Roboto, sans-serif; font-size: 12px; font-weight: 200;" fill="rgb(255, 255, 255)" stroke="none" stroke-width="1px">0.22</text><text x="0" y="0" dx="0em" dy="0.3em" style="text-anchor: end; visibility: hidden; font-family: Roboto, sans-serif; font-size: 12px; font-weight: 200;" fill="rgb(255, 255, 255)" stroke="none" stroke-width="1px">0.24</text></g><line x1="51.5625" y1="0" x2="51.5625" y2="377" fill="rgb(0, 0, 0)" stroke="rgb(204, 204, 204)" stroke-width="1px"></line></g></g><g transform="translate(51, 0)" clip-path="url(#clip_0)"><clipPath id="clip_0"><rect width="1040" height="377"></rect></clipPath><g><g><g><line x1="0" y1="0" x2="0" y2="377" fill="rgb(0, 0, 0)" stroke="rgb(189, 189, 189)" stroke-width="1px" opacity="0.25"></line><line x1="74.30910714285714" y1="0" x2="74.30910714285714" y2="377" fill="rgb(0, 0, 0)" stroke="rgb(189, 189, 189)" stroke-width="1px" opacity="0.25"></line><line x1="148.6182142857143" y1="0" x2="148.6182142857143" y2="377" fill="rgb(0, 0, 0)" stroke="rgb(189, 189, 189)" stroke-width="1px" opacity="0.25"></line><line x1="222.92732142857142" y1="0" x2="222.92732142857142" y2="377" fill="rgb(0, 0, 0)" stroke="rgb(189, 189, 189)" stroke-width="1px" opacity="0.25"></line><line x1="297.2364285714286" y1="0" x2="297.2364285714286" y2="377" fill="rgb(0, 0, 0)" stroke="rgb(189, 189, 189)" stroke-width="1px" opacity="0.25"></line><line x1="371.54553571428573" y1="0" x2="371.54553571428573" y2="377" fill="rgb(0, 0, 0)" stroke="rgb(189, 189, 189)" stroke-width="1px" opacity="0.25"></line><line x1="445.8546428571429" y1="0" x2="445.8546428571429" y2="377" fill="rgb(0, 0, 0)" stroke="rgb(189, 189, 189)" stroke-width="1px" opacity="0.25"></line><line x1="520.1637499999999" y1="0" x2="520.1637499999999" y2="377" fill="rgb(0, 0, 0)" stroke="rgb(189, 189, 189)" stroke-width="1px" opacity="0.25"></line><line x1="594.4728571428572" y1="0" x2="594.4728571428572" y2="377" fill="rgb(0, 0, 0)" stroke="rgb(189, 189, 189)" stroke-width="1px" opacity="0.25"></line><line x1="668.7819642857143" y1="0" x2="668.7819642857143" y2="377" fill="rgb(0, 0, 0)" stroke="rgb(189, 189, 189)" stroke-width="1px" opacity="0.25"></line><line x1="743.0910714285714" y1="0" x2="743.0910714285714" y2="377" fill="rgb(0, 0, 0)" stroke="rgb(189, 189, 189)" stroke-width="1px" opacity="0.25"></line><line x1="817.4001785714287" y1="0" x2="817.4001785714287" y2="377" fill="rgb(0, 0, 0)" stroke="rgb(189, 189, 189)" stroke-width="1px" opacity="0.25"></line><line x1="891.7092857142857" y1="0" x2="891.7092857142857" y2="377" fill="rgb(0, 0, 0)" stroke="rgb(189, 189, 189)" stroke-width="1px" opacity="0.25"></line><line x1="966.0183928571429" y1="0" x2="966.0183928571429" y2="377" fill="rgb(0, 0, 0)" stroke="rgb(189, 189, 189)" stroke-width="1px" opacity="0.25"></line><line x1="1040.3275" y1="0" x2="1040.3275" y2="377" fill="rgb(0, 0, 0)" stroke="rgb(189, 189, 189)" stroke-width="1px" opacity="0.25"></line></g><g><line x1="0" y1="377" x2="1040.3275" y2="377" fill="rgb(0, 0, 0)" stroke="rgb(189, 189, 189)" stroke-width="1px" opacity="0.25"></line><line x1="0" y1="342.7272727272727" x2="1040.3275" y2="342.7272727272727" fill="rgb(0, 0, 0)" stroke="rgb(189, 189, 189)" stroke-width="1px" opacity="0.25"></line><line x1="0" y1="308.4545454545455" x2="1040.3275" y2="308.4545454545455" fill="rgb(0, 0, 0)" stroke="rgb(189, 189, 189)" stroke-width="1px" opacity="0.25"></line><line x1="0" y1="274.1818181818182" x2="1040.3275" y2="274.1818181818182" fill="rgb(0, 0, 0)" stroke="rgb(189, 189, 189)" stroke-width="1px" opacity="0.25"></line><line x1="0" y1="239.9090909090909" x2="1040.3275" y2="239.9090909090909" fill="rgb(0, 0, 0)" stroke="rgb(189, 189, 189)" stroke-width="1px" opacity="0.25"></line><line x1="0" y1="205.63636363636363" x2="1040.3275" y2="205.63636363636363" fill="rgb(0, 0, 0)" stroke="rgb(189, 189, 189)" stroke-width="1px" opacity="0.25"></line><line x1="0" y1="171.36363636363635" x2="1040.3275" y2="171.36363636363635" fill="rgb(0, 0, 0)" stroke="rgb(189, 189, 189)" stroke-width="1px" opacity="0.25"></line><line x1="0" y1="137.09090909090907" x2="1040.3275" y2="137.09090909090907" fill="rgb(0, 0, 0)" stroke="rgb(189, 189, 189)" stroke-width="1px" opacity="0.25"></line><line x1="0" y1="102.81818181818181" x2="1040.3275" y2="102.81818181818181" fill="rgb(0, 0, 0)" stroke="rgb(189, 189, 189)" stroke-width="1px" opacity="0.25"></line><line x1="0" y1="68.54545454545453" x2="1040.3275" y2="68.54545454545453" fill="rgb(0, 0, 0)" stroke="rgb(189, 189, 189)" stroke-width="1px" opacity="0.25"></line><line x1="0" y1="34.272727272727245" x2="1040.3275" y2="34.272727272727245" fill="rgb(0, 0, 0)" stroke="rgb(189, 189, 189)" stroke-width="1px" opacity="0.25"></line><line x1="0" y1="0" x2="1040.3275" y2="0" fill="rgb(0, 0, 0)" stroke="rgb(189, 189, 189)" stroke-width="1px" opacity="0.25"></line></g></g></g><g><g><line x1="0" y1="411.27272727272725" x2="1040.3275" y2="411.27272727272725" fill="rgb(0, 0, 0)" stroke="rgb(153, 153, 153)" stroke-width="1.5px"></line></g></g><g><g><line x1="74.30910714285714" y1="0" x2="74.30910714285714" y2="377" fill="rgb(0, 0, 0)" stroke="rgb(153, 153, 153)" stroke-width="1.5px"></line></g></g><g><g><g><g><g><path stroke="rgb(204, 51, 17)" stroke-width="2px" d="M74.30910714285714,278.66162239286035L76.60649703869048,280.43643931821566L79.39928098214286,281.53229009168473L82.77621707341271,288.4806530582923L87.69919542162698,289.98154231376884L92.2877827876984,303.22827962886976L95.04341217757938,314.7291725899113L97.40685461309523,318.04927468347074L99.72282178571429,316.3244357972711L102.76536689484128,316.9335890255808L105.72947461309523,316.285950506386L108.08053219742064,323.84173908563724L110.48938575396826,329.56585109456284L112.89411102678572,322.16971409545823L115.79835863095238,320.30282914174774L119.10511389880952,332.3656309793644L122.90107078869048,336.91400081746553L126.61239786210318,331.28903712046576L164.04561058531743,334.295249266582L167.59799873511903,329.08816613170677L169.81695124007936,334.80073096526183L172.1948426686508,340.4076710751489L174.4757194295635,320.829891311529L176.77104518353175,334.6597599083041L179.0849482142857,317.23496377633273L181.37201740079365,317.6723869374916L183.68592043154763,327.11476108311916L185.9482199156746,337.57788482928515L188.3612017559524,330.3943342024015L191.71130400297616,329.5321783605609L195.21208860615081,334.3510419107559L198.98327579365076,336.48271230091547L202.8349645138889,335.16616360382056L205.33876859623018,331.0896976039715L207.62996606646828,329.5217721844839L210.45164799603174,334.8826287546363L213.00086319940473,333.8264439800098L251.76338328373015,336.14256614980695L254.0401317609127,339.0132894586088L256.4634343105158,336.5565158830779L258.83719745535717,323.24219003285225L261.2212813095238,330.2274916689904L264.4186370585318,337.51774972026857L267.82034285218253,324.8775317137189L271.73601997023815,332.3312995635862L275.7714173164683,343.3565282622319L279.3444468849206,355.33607646003696L281.75742872519845,341.42123152235774L284.217885828373,333.42949909486657L286.62054695932545,336.69149620999906L289.0211439484127,336.9478901608188L291.5621025843254,335.75908599572807L293.8574283382937,347.14086381912983L296.26834603670636,339.0603593969865L298.6668788839285,341.5960970793433L301.64956387896825,336.08791174158466L340.05911570436507,325.9101115923776L343.8158538988095,344.97903646831605L347.77487799603176,334.9892631870694L351.57083488591275,343.93279550139914L354.94157855158727,348.2987909544134L357.325662405754,340.9078666613445L359.69736140873016,337.9255408289468L362.085573546627,333.86438264988215L364.46140083333336,342.2514483583632L366.79594528273805,338.4899154895377L369.1387462996032,343.1030959503785L371.45677761408734,338.42496524281245L373.82847661706353,336.6601578555134L376.76575049107146,345.4862284651514L380.10346788690475,342.1193023837442L383.9778621676587,345.63744843811804L387.95959182539684,338.6936546200803L391.06818947420635,338.8388522605183L393.3882849305556,336.97175254623113L432.9393072073413,335.46713683719645L435.27591579861115,345.3896391904889L437.6971542063492,335.5065821909833L440.1287133234127,334.9468943048762L442.504540610119,339.71591370387654L444.8762396130952,343.0877051523054L447.2272971974206,346.4398108023771L450.0242094246032,345.6275278283475L453.4155945089286,340.81143919817725L457.24251352678573,346.4786621619808L461.1024588144841,341.3504496276723L464.91699298115077,344.8141956288415L468.1618239930555,341.3218314441224L470.539715421627,340.03532035916334L472.8804522966269,329.6994703515227L475.2542154414682,339.0078235100497L477.588759890873,345.0726261297713L480.1359109523809,350.7308118703507L518.1429551140873,345.97660778568644L520.5063975496032,351.7226013161982L523.4911466865078,328.12705020573554L526.9403277430555,326.3025517978365L530.7713750446429,343.8761136874695L534.6849880208333,350.38553506969066L538.1981574751985,347.61341270203724L540.5471509176587,331.1054427531949L543.1686110863095,339.70268363501106L545.5444383730159,341.93967700695885L547.9718692063492,344.7765656152491L550.3497606349206,331.4886474731951L552.6347656795634,337.81387667634914L555.095222782738,338.91015465663355L557.5288460416665,342.0491502569409L560.5775835763889,329.74529102238824L564.0577267609127,331.51359456702136L567.8970306299602,344.0924014404854L571.7900021874999,349.04980527055193L610.699076344246,346.7858154953876L613.0418773611111,336.70461232007756L615.3392672569445,329.2073262467086L617.696517266865,335.8250799811273L620.0413824255951,329.02084625201445L622.3862475843254,340.9439740455492L624.8859233829364,333.98799725443683L627.3216107837302,327.2832389984522L629.7160153472223,345.354590020496L632.622327093254,342.16014683099104L636.0983419940475,332.8644342490332L639.853016046627,336.04218856711003L643.7831421577381,341.7268217617212L647.112602986111,342.8837928829426L649.529713110119,350.6140822840287L651.8312312896826,350.3573971822063L654.3061373859126,348.9436933512595L656.6716439632936,352.11715043804065L659.0701768105158,343.929672968843L697.2299674702382,342.9156704521699L699.6037306150793,349.2686219781723L701.9651089087301,336.4467617566291L704.6629423263888,336.99470204502995L708.0873536805556,343.80918553854525L711.819322172619,345.6366110509344L715.668946750992,347.29774471968494L719.4814167757936,343.40278441585224L721.9026551835317,337.62518561664757L724.2991238888889,338.95418249983993L726.6770153174602,331.15804609305957L729.0838047321429,335.0696709108851L731.6041219494048,338.7375079039667L734.0377452083333,330.66735437039677L736.3640330902778,344.44629723937834L738.7460528025794,329.571709122043L741.340679126984,340.89110643542176L744.8022450347222,331.65990745301815L748.5899453571429,332.03485256576346L797.3140140823413,343.0624424283672L799.543287296627,346.6673502849873L801.8200357738094,343.96399226649015L804.2061837698412,336.7417426267868L806.5737544890872,331.1870476823504L808.8546312499999,348.78248572899565L811.4760914186508,346.0508938755656L814.8777972123016,336.28263261100585L818.609765704365,332.78217772057815L822.3954018849206,327.9117354788332L826.1686532142857,343.536066164866L829.0419386904762,350.15529558157505L831.3352003025793,337.3385391377845L833.6098846378968,339.6513958273952L835.9836477827381,343.8205646014304L838.2480114087301,344.1104633072691L840.6465442559523,334.7682364045719L842.9398058680555,344.62429158899204L880.6331004662699,354.3491149119769L882.9820939087301,352.38515720212166L885.5416298214285,343.2333735349674L889.0671841269841,341.5370812142633L892.759933923611,340.90271057994073L896.5889170833333,336.4842944201909L900.4984017757937,347.9978522758471L902.9939492906745,348.4385261962953L905.4007387053571,338.16384506085114L907.762116999008,341.7264658792512L910.1338160019842,348.8239149056078L912.5034508630953,346.8685680808553L914.8648291567459,338.85345533922816L917.1952453224206,344.6355977112309L919.7939999305555,349.4133945972743L922.3824338293649,341.16796015049664L925.8047810416666,346.5445838761779L929.6069303571428,342.5087135140973L933.4359135168651,345.3727010023756" style="fill: none;" fill="none"></path></g><g><path stroke="rgb(0, 119, 187)" stroke-width="2px" d="M74.30910714285714,12.892615234309927L76.69938342261905,13.656258206195876L79.03805615575398,13.986597144904175L81.43246071924604,16.03042725641846L83.87021226190477,17.1369409173152L86.22952641369048,17.235235944034528L88.61567440972223,19.115288282484457L92.0400857638889,18.33321379465051L96.08373967757936,20.722841087989078L100.17899713789683,22.861847125832565L104.23710004464286,24.964161881750563L107.12896279761905,25.922649137698688L109.50685422619047,27.006966926511073L111.87029666170635,27.10897340034067L114.38029316964285,28.35025994920478L116.86345583333333,29.144218456288502L119.28263009920634,25.972917992762884L121.78643418154762,29.315253704140307L159.86159502480157,28.701904485824183L162.27664100694446,28.744641502510365L165.7712331845238,31.12699058900961L169.84791336805554,33.78495552080943L174.05050620535715,32.589665341100314L178.0570055654762,33.193488671875265L181.20275776785712,32.581520265776064L183.5744567708333,33.20151690326903L185.9667971924603,32.58555614129679L188.39629216765874,32.04565556822132L190.71225934027777,33.03078563554611L193.24496140873015,32.159308417938384L195.65587910714285,34.93499743608368L198.07711751488097,33.87101476688952L202.7317574206349,35.23665360919059L206.3873526636905,32.88145186136266L210.3360560515873,33.65696291505428L214.44782664682543,34.112502581613036L217.65756724702382,33.52897619910375L260.93230144841266,35.75924712023696L263.2049216418651,36.35949444769827L265.70046915674607,33.88869960268437L267.9854742013889,32.801473743468726L270.330339360119,35.81309376816494L272.6566272420635,34.97235260928616L275.25538185019843,37.062741707075645L278.9274902281746,37.613643920778905L282.8390390625,33.539137382799474L287.00241320436504,37.41283754738214L291.0790933878968,36.34604901780785L293.4838186607143,34.76061799156207L296.16720308531745,37.958625128348224L298.5265172371032,39.32112387412176L300.9044086656746,39.00221877800438L303.3215187896825,40.574747449046576L305.77371932539677,39.89287249234912L308.1598673214286,37.67535633547877L310.5852340128968,35.53657818818928L347.9730356150794,39.95214548272685L351.78550563988097,37.26362764668983L355.9158535119048,39.62358164128116L360.31041154265876,37.73551662984565L364.2426017956349,36.78270751450198L366.7298927430556,37.09050331401071L369.12016902281744,37.17598787463489L371.53108672123017,39.40899165311364L373.97090240575403,40.00961621824625L376.42103879960314,40.168025160742204L378.8464054910714,39.02070151274249L381.39355655257935,41.321643668667285L383.82305152777775,39.13301511128191L387.3547982589286,39.27505539705215L391.15488343253963,40.14091859424086L395.46274750496036,39.45727248338163L399.61580093749996,43.910162186334716L402.8255415376985,40.879681309538235L405.24471580357147,42.29449855530924L444.6760178521825,45.17673345663818L447.0683582738095,43.82996594045665L449.681561875,40.38706533805317L452.1936225248016,43.15989328664094L454.72838873511904,44.077180612076674L457.17026856150795,44.082192506902906L460.35111117559524,46.62639195055088L464.17390190972225,47.99804424590673L468.0751300347222,46.42367118527879L472.0444748412698,45.63754606635569L475.67942866567455,46.69375901723228L478.1625913293651,43.03867427785141L480.8459757539682,45.09551957309181L483.29404800595245,47.523265226423824L486.02490769345235,42.763214674940144L488.43376125,46.55538275976106L490.93550119047615,46.62496539318048L493.39183000992057,45.14279346496263L532.9738144146826,44.78628181370162L536.5117535714286,47.48952866937881L540.4852266617063,47.70858293138382L544.7002043501983,47.626932266666415L548.7706921081349,44.72816464803798L552.1600130505952,46.36272646123354L554.7071641121031,49.65861659909196L557.1820702083332,48.591314627416594L559.5867954811508,46.94497575441995L562.0678940029761,46.470875698930776L564.480875843254,47.30295279059084L566.9950006349206,45.452917294102086L569.4843557242062,50.08855241545053L572.1099441765872,48.94309932813161L575.7263207242063,48.85153813524416L579.854604454365,48.1222791744353L584.0737104265872,46.59634085475387L587.8944370188492,51.535910563877955L590.2929698660714,50.95538543918025L629.5756537003967,48.484977885063536L632.1186764781746,52.46156576741609L634.5956467162698,54.48023022054358L637.072616954365,49.697032859655195L639.6569225694443,49.378524083518485L642.1627907936507,52.346844046967L644.6707231597222,51.135321228369584L647.9114258878968,49.784580185551974L651.6702282242063,50.368662299561386L655.6891124355159,50.262699106797626L659.674970376984,52.2528255603179L662.506973015873,49.61005877154627L664.9633018353173,54.340189803350114L667.4113740873015,54.58475079119253L669.8966008928571,50.480517069189055L672.4809065079365,49.51589030042585L675.1353929464285,49.657111271809214L677.6887364335317,51.191356683046166L680.2296950694443,53.740254235942885L719.803422906746,52.80013913137121L723.4425050148809,52.12218785757228L727.3045144444444,54.08512718560348L731.4493113095238,49.06381862320266L735.1007782688491,53.18947205078429L737.8357662400794,51.78429738492208L740.2962233432539,53.65680478029603L742.7876425744048,58.204918238625716L745.2419072519841,57.809839393318406L747.7849300297619,60.81642950032236L750.2185532886904,59.76412196495604L752.8007947619047,56.44775882388402L755.5027564632936,54.89898133973607L759.257430515873,57.11618947671648L763.0884778174603,56.967676524295854L766.9876418005952,56.321484223596975L770.6659426041666,57.758407588031254L773.2110295238095,60.46598403335598L775.6879997619047,56.737667097674404L815.459885218254,58.35300511750523L817.9533685912697,56.315200987373885L820.3807994246032,57.62543670480752L822.9960671676587,60.67405077851848L825.4358828521824,57.95214056491366L827.8385439831349,55.85053959599834L831.0936957043651,61.109830374732375L834.9020374454365,61.48887967095355L838.9580762103174,58.520459178636344L842.954254861111,60.372965938292L846.3724737896825,60.06912580531709L848.8040329067461,60.50402105882247L851.2975162797618,58.33441625604993L853.720818829365,58.28367367452803L856.1895324999999,57.34275320042661L858.7057214335317,57.603909534026585L861.418003844246,54.5484922608792L863.8702043799602,58.96360943028907L902.9939492906745,61.227434299420146L906.1995616071428,61.40431920981589L909.8489644246031,61.480618905309065L913.8616562103175,58.379078225544085L917.750499484127,55.12139222371396L920.6691960813491,60.35583986381982L923.1709360218254,59.71750155215899L925.8811542906745,61.67434397440951L928.4489467708333,62.57201807349247L930.8990831646825,64.3152975640022L933.4173362400793,63.56581875226865L935.8881140525793,63.90114613603132L938.3877898511905,64.1529699946627L941.5521193303572,63.63748342317296L945.1973938640873,65.25945334499366L949.2265987847221,63.66477865070916L953.1732380307541,63.76528343167683L956.2591301190477,65.82388025145141L958.6638553918652,70.63485770479086" style="fill: none;" fill="none"></path></g></g></g></g><g opacity="0.2"><g><g><g><path stroke="rgb(204, 51, 17)" stroke-width="2px" d="M74.30910714285714,278.66162239286035L76.60649703869048,281.0664993267168L79.39928098214286,282.0594217099927L82.77621707341271,292.13385129652244L87.69919542162698,290.7944932390343L92.2877827876984,310.4780122109435L95.04341217757938,321.0464516126297L97.40685461309523,319.87531926618385L99.72282178571429,315.3753453337334L102.76536689484128,317.2688293843107L105.72947461309523,315.92950962958014L108.08053219742064,328.0003044733947L110.48938575396826,332.7163187258623L112.89411102678572,318.0989778156985L115.79835863095238,319.27531933716756L119.10511389880952,339.0048463046551L122.90107078869048,339.4173670031808L126.61239786210318,328.19312693855983L164.04561058531743,335.9498311321844L167.59799873511903,326.2222521664067L169.81695124007936,337.94485579295593L172.1948426686508,343.4936613670804L174.4757194295635,310.05452415618026L176.77104518353175,342.27154805037105L179.0849482142857,307.644572106952L181.37201740079365,317.91313921998847L183.68592043154763,332.31172669814396L185.9482199156746,343.3366583639925L188.3612017559524,326.4405970356681L191.71130400297616,329.05765847861767L195.21208860615081,337.00328463993293L198.98327579365076,337.6559572443366L202.8349645138889,334.44155153022575L205.33876859623018,328.84606127847326L207.62996606646828,328.6588054807349L210.45164799603174,337.8331777196039L213.00086319940473,333.2451329800216L251.76338328373015,337.41733106496656L254.0401317609127,340.5932999619029L256.4634343105158,335.2043381787159L258.83719745535717,315.9141502238133L261.2212813095238,334.07211505012083L264.4186370585318,341.5302173298868L267.82034285218253,317.9205125008117L271.73601997023815,336.4337609383193L275.7714173164683,349.4246773909439L279.3444468849206,361.92947120456535L281.75742872519845,333.76267345588315L284.217885828373,329.0309486890381L286.62054695932545,338.4868589632891L289.0211439484127,337.08900621127L291.5621025843254,335.10478292812L293.8574283382937,353.4052531637929L296.26834603670636,334.61294998634946L298.6668788839285,342.9917356487025L301.64956387896825,333.05627485026014L340.05911570436507,320.30837662653494L343.8158538988095,355.4743362062357L347.77487799603176,329.491015877236L351.57083488591275,348.85520475967365L354.94157855158727,350.70178069987077L357.325662405754,336.8399936008183L359.69736140873016,336.28410568088293L362.085573546627,331.62917155907917L364.46140083333336,346.86758529868996L366.79594528273805,336.4196144532074L369.1387462996032,345.64213325828314L371.45677761408734,335.85018012469465L373.82847661706353,335.6888297586279L376.76575049107146,350.34398825805295L380.10346788690475,340.26618802886117L383.9778621676587,347.57379239052534L387.95959182539684,334.8718766272068L391.06818947420635,338.91876724091446L393.3882849305556,335.94412402131337L432.9393072073413,334.6390150128441L435.27591579861115,350.8508614159443L437.6971542063492,330.06707019900733L440.1287133234127,334.63884903422814L442.504540610119,342.34072283045816L444.8762396130952,344.9434973448515L447.2272971974206,348.2847681756724L450.0242094246032,345.1804573542692L453.4155945089286,338.1607237505642L457.24251352678573,349.5978313901208L461.1024588144841,338.5279450545257L464.91699298115077,346.72059846669436L468.1618239930555,339.3996775129979L470.539715421627,339.3272406147285L472.8804522966269,324.0107467039065L475.2542154414682,344.1310256360607L477.588759890873,348.4106182693081L480.1359109523809,353.84500712291765L518.1429551140873,343.3599528243596L520.5063975496032,354.8851248872551L523.4911466865078,315.14035153253513L526.9403277430555,325.29837050356645L530.7713750446429,353.5483841848644L534.6849880208333,353.9682398614558L538.1981574751985,346.0876709337939L540.5471509176587,322.0196608433669L543.1686110863095,344.4344983839176L545.5444383730159,343.1708904132247L547.9718692063492,346.33795391903686L550.3497606349206,324.1751421391964L552.6347656795634,341.29520437730986L555.095222782738,339.51353245973587L557.5288460416665,343.77681450207126L560.5775835763889,322.97339950569653L564.0577267609127,332.48684690554035L567.8970306299602,351.0156207274307L571.7900021874999,351.77829885144126L610.699076344246,345.53974360363054L613.0418773611111,331.15604313056576L615.3392672569445,325.080912981521L617.696517266865,339.46740955588496L620.0413824255951,325.27588040110743L622.3862475843254,347.5063156993552L624.8859233829364,330.1595139042898L627.3216107837302,323.59302321415055L629.7160153472223,355.30083748224104L632.622327093254,340.40196492048824L636.0983419940475,327.7481893395836L639.853016046627,337.79118512977254L643.7831421577381,344.85557336495685L647.112602986111,343.52057543803346L649.529713110119,354.868737690828L651.8312312896826,350.2161208858544L654.3061373859126,348.16560829701746L656.6716439632936,353.8637818578969L659.0701768105158,339.42338691990483L697.2299674702382,342.3575760437684L699.6037306150793,352.76520770178604L701.9651089087301,329.3897689215161L704.6629423263888,337.2962815836072L708.0873536805556,347.5597927326506L711.819322172619,346.64240338721055L715.668946750992,348.21201208775693L719.4814167757936,341.2590465742079L721.9026551835317,334.44526689770544L724.2991238888889,339.6856459006667L726.6770153174602,326.86714931103313L729.0838047321429,337.22258069433946L731.6041219494048,340.75623989240694L734.0377452083333,326.2256419604475L736.3640330902778,352.03005649284887L738.7460528025794,321.38492031327706L741.340679126984,347.12116232107985L744.8022450347222,326.5791700285944L748.5899453571429,332.24121770533645L797.3140140823413,349.13189111243594L799.543287296627,348.6514468572356L801.8200357738094,342.47609754313123L804.2061837698412,332.7667060033842L806.5737544890872,328.1298124803738L808.8546312499999,358.46679659187794L811.4760914186508,344.5474595996467L814.8777972123016,330.90630276772106L818.609765704365,330.8555707653815L822.3954018849206,325.2311044775627L826.1686532142857,352.13550398431045L829.0419386904762,353.79843735356224L831.3352003025793,330.284355358644L833.6098846378968,340.9243634627624L835.9836477827381,346.115223384039L838.2480114087301,344.2700199593197L840.6465442559523,329.62639058990914L842.9398058680555,350.04894211685115L880.6331004662699,359.7015370509841L882.9820939087301,351.3042192377828L885.5416298214285,338.1963453150608L889.0671841269841,340.6034629602324L892.759933923611,340.5535608509725L896.5889170833333,334.05245296792555L900.4984017757937,354.33477171578187L902.9939492906745,348.681067656387L905.4007387053571,332.5087880018083L907.762116999008,343.6872881901535L910.1338160019842,352.7302628193389L912.5034508630953,345.79236944087523L914.8648291567459,334.44203669848764L917.1952453224206,347.8180171562867L919.7939999305555,352.0430347438563L922.3824338293649,336.6297752999447L925.8047810416666,349.50381088798696L929.6069303571428,340.2874205241149L933.4359135168651,346.94900419359857" style="fill: none;" fill="none"></path></g><g><path stroke="rgb(0, 119, 187)" stroke-width="2px" d="M74.30910714285714,12.89261523430997L76.69938342261905,13.92735146121543L79.03805615575398,14.145498432896343L81.43246071924604,17.10499929568981L83.87021226190477,17.73627981001677L86.22952641369048,17.289031278003332L88.61567440972223,20.14797463471236L92.0400857638889,17.903075551444825L96.08373967757936,22.037730550224122L100.17899713789683,24.039024095643637L104.23710004464286,26.121213064952308L107.12896279761905,26.450182681733903L109.50685422619047,27.60375959764826L111.87029666170635,27.165116418491685L114.38029316964285,29.033448324962073L116.86345583333333,29.58120329271662L119.28263009920634,24.22747366265815L121.78643418154762,31.154833782802903L159.86159502480157,28.36432468620214L162.27664100694446,28.768163426355862L165.7712331845238,32.43820597637781L169.84791336805554,35.247866451740265L174.05050620535715,31.931792451576733L178.0570055654762,33.525825543837094L181.20275776785712,32.24470044537022L183.5744567708333,33.542755362662405L185.9667971924603,32.24653897773134L188.39629216765874,31.74850098924201L190.71225934027777,33.57298900593408L193.24496140873015,31.679658166386833L195.65587910714285,36.46270224452019L198.07711751488097,33.28541190244933L202.7317574206349,35.98828428983688L206.3873526636905,31.585178031162762L210.3360560515873,34.0837945802645L214.44782664682543,34.36322596398267L217.65756724702382,33.20781051570715L260.93230144841266,36.986760572953635L263.2049216418651,36.68986313180488L265.70046915674607,32.5288047655062L267.9854742013889,32.20307811552824L270.330339360119,37.47065207633105L272.6566272420635,34.50961910323661L275.25538185019843,38.21326593919232L278.9274902281746,37.91685366630554L282.8390390625,31.29657952081072L287.00241320436504,39.54487407207489L291.0790933878968,35.758901842615806L293.4838186607143,33.888016418977195L296.16720308531745,39.71876859123053L298.5265172371032,40.071026284586274L300.9044086656746,38.82669736851343L303.3215187896825,41.44024772535669L305.77371932539677,39.51757697354662L308.1598673214286,36.45486294681372L310.5852340128968,34.35942122340202L347.9730356150794,42.38241895491423L351.78550563988097,35.783900775692665L355.9158535119048,40.92247104915705L360.31041154265876,36.69634906541216L364.2426017956349,36.25829319520428L366.7298927430556,37.25991030443796L369.12016902281744,37.223037516528905L371.53108672123017,40.6380092366175L373.97090240575403,40.3401925292882L376.42103879960314,40.25521147792989L378.8464054910714,38.38922880725425L381.39355655257935,42.58805369247087L383.82305152777775,37.928421099077546L387.3547982589286,39.353232608600074L391.15488343253963,40.61747895858502L395.46274750496036,39.08100214329633L399.61580093749996,46.360977449200355L402.8255415376985,39.21174222230911L405.24471580357147,43.073196419260704L444.6760178521825,46.76307979767972L447.0683582738095,43.08872180364346L449.681561875,38.49213554913344L452.1936225248016,44.68602339787915L454.72838873511904,44.582044178789275L457.17026856150795,44.084950991652214L460.35111117559524,48.026687768372625L464.17390190972225,48.75298465652897L468.0751300347222,45.55715577981686L472.0444748412698,45.20487255128947L475.67942866567455,47.275085525079184L478.1625913293651,41.02696097168055L480.8459757539682,46.227581712332636L483.29404800595245,48.85946632244369L486.02490769345235,40.14334189079022L488.43376125,48.64254503900351L490.93550119047615,46.66326281157407L493.39183000992057,44.32702441919931L532.9738144146826,44.59006222269749L536.5117535714286,48.97736221010031L540.4852266617063,47.829147680239224L544.7002043501983,47.581992753527366L548.7706921081349,43.13271890445187L552.1600130505952,47.26236900958148L554.7071641121031,51.472633651711696L557.1820702083332,48.00388486006042L559.5867954811508,46.03885125842962L562.0678940029761,46.20993690870022L564.480875843254,47.76091770150443L566.9950006349206,44.43468070301142L569.4843557242062,52.6399484899911L572.1099441765872,48.31265615604138L575.7263207242063,48.80114399032157L579.854604454365,47.72090408747846L584.0737104265872,45.756483329968L587.8944370188492,54.25458846579897L590.2929698660714,50.635871610858196L629.5756537003967,47.12529620799151L632.1186764781746,54.650230415842735L634.5956467162698,55.59127809784626L637.072616954365,47.06442035870116L639.6569225694443,49.20322080362924L642.1627907936507,53.980570538477444L644.6707231597222,50.46851409565317L647.9114258878968,49.04114906896242L651.6702282242063,50.69013385068285L655.6891124355159,50.20437827977267L659.674970376984,53.34816647659647L662.506973015873,48.15551270950922L664.9633018353173,56.94359525496306L667.4113740873015,54.71935412558642L669.8966008928571,48.22159773382273L672.4809065079365,48.98497169126161L675.1353929464285,49.73483754288065L677.6887364335317,52.03578632799062L680.2296950694443,55.14313583482393L719.803422906746,52.282711438157314L723.4425050148809,51.74905188517135L727.3045144444444,55.16550464521753L731.4493113095238,46.30015267025339L735.1007782688491,55.46018052642995L737.8357662400794,51.01090667735445L740.2962233432539,54.68740962581199L742.7876425744048,60.70814347538081L745.2419072519841,57.59239289706403L747.7849300297619,62.47121940417721L750.2185532886904,59.1849449493668L752.8007947619047,54.62247368422422L755.5027564632936,54.0465534221042L759.257430515873,58.33651333505453L763.0884778174603,56.885936837304705L766.9876418005952,55.965827996080534L770.6659426041666,58.549272385510534L773.2110295238095,61.95620052651923L775.6879997619047,54.68564769896594L815.459885218254,59.242067128419876L817.9533685912697,55.19361886923963L820.3807994246032,58.34657419269735L822.9960671676587,62.35197015242141L825.4358828521824,56.45403494347223L827.8385439831349,54.69384448907589L831.0936957043651,64.00447878783399L834.9020374454365,61.69750370220702L838.9580762103174,56.8866773572835L842.954254861111,61.39256268197836L846.3724737896825,59.90189596468748L848.8040329067461,60.74338201230222L851.2975162797618,57.140292682430946L853.720818829365,58.255745587023824L856.1895324999999,56.82488224181262L858.7057214335317,57.74764674089169L861.418003844246,52.866828490387284L863.8702043799602,61.393635159189046L902.9939492906745,62.47341542894186L906.1995616071428,61.501674470576376L909.8489644246031,61.52261331135573L913.8616562103175,56.67202870412304L917.750499484127,53.32840225371447L920.6691960813491,63.23681492155248L923.1709360218254,59.366168062795275L925.8811542906745,62.75136577270245L928.4489467708333,63.06608676368536L930.8990831646825,65.27477697350761L933.4173362400793,63.153314910151714L935.8881140525793,64.08570616895499L938.3877898511905,64.2915707230568L941.5521193303572,63.35376600785687L945.1973938640873,66.15216547250748L949.2265987847221,62.787089477885836L953.1732380307541,63.820600016550564L956.2591301190477,66.95690640807152L958.6638553918652,73.28276002407074" style="fill: none;" fill="none"></path></g></g></g></g></g></g><g transform="translate(51, 377)" clip-path="url(#clip_1)"><clipPath id="clip_1"><rect width="1040" height="23"></rect></clipPath><g><g><line x1="0" y1="0" x2="0" y2="5" style="visibility: inherit;" fill="rgb(0, 0, 0)" stroke="rgb(204, 204, 204)" stroke-width="1px"></line><line x1="74.30910714285714" y1="0" x2="74.30910714285714" y2="5" style="visibility: inherit;" fill="rgb(0, 0, 0)" stroke="rgb(204, 204, 204)" stroke-width="1px"></line><line x1="148.6182142857143" y1="0" x2="148.6182142857143" y2="5" style="visibility: inherit;" fill="rgb(0, 0, 0)" stroke="rgb(204, 204, 204)" stroke-width="1px"></line><line x1="222.92732142857142" y1="0" x2="222.92732142857142" y2="5" style="visibility: inherit;" fill="rgb(0, 0, 0)" stroke="rgb(204, 204, 204)" stroke-width="1px"></line><line x1="297.2364285714286" y1="0" x2="297.2364285714286" y2="5" style="visibility: inherit;" fill="rgb(0, 0, 0)" stroke="rgb(204, 204, 204)" stroke-width="1px"></line><line x1="371.54553571428573" y1="0" x2="371.54553571428573" y2="5" style="visibility: inherit;" fill="rgb(0, 0, 0)" stroke="rgb(204, 204, 204)" stroke-width="1px"></line><line x1="445.8546428571429" y1="0" x2="445.8546428571429" y2="5" style="visibility: inherit;" fill="rgb(0, 0, 0)" stroke="rgb(204, 204, 204)" stroke-width="1px"></line><line x1="520.1637499999999" y1="0" x2="520.1637499999999" y2="5" style="visibility: inherit;" fill="rgb(0, 0, 0)" stroke="rgb(204, 204, 204)" stroke-width="1px"></line><line x1="594.4728571428572" y1="0" x2="594.4728571428572" y2="5" style="visibility: inherit;" fill="rgb(0, 0, 0)" stroke="rgb(204, 204, 204)" stroke-width="1px"></line><line x1="668.7819642857143" y1="0" x2="668.7819642857143" y2="5" style="visibility: inherit;" fill="rgb(0, 0, 0)" stroke="rgb(204, 204, 204)" stroke-width="1px"></line><line x1="743.0910714285714" y1="0" x2="743.0910714285714" y2="5" style="visibility: inherit;" fill="rgb(0, 0, 0)" stroke="rgb(204, 204, 204)" stroke-width="1px"></line><line x1="817.4001785714287" y1="0" x2="817.4001785714287" y2="5" style="visibility: inherit;" fill="rgb(0, 0, 0)" stroke="rgb(204, 204, 204)" stroke-width="1px"></line><line x1="891.7092857142857" y1="0" x2="891.7092857142857" y2="5" style="visibility: inherit;" fill="rgb(0, 0, 0)" stroke="rgb(204, 204, 204)" stroke-width="1px"></line><line x1="966.0183928571429" y1="0" x2="966.0183928571429" y2="5" style="visibility: inherit;" fill="rgb(0, 0, 0)" stroke="rgb(204, 204, 204)" stroke-width="1px"></line><line x1="1040.3275" y1="0" x2="1040.3275" y2="5" style="visibility: inherit;" fill="rgb(0, 0, 0)" stroke="rgb(204, 204, 204)" stroke-width="1px"></line></g><g transform="translate(0, 8)"><text x="0" y="0" dx="0em" dy="0.95em" style="text-anchor: middle; visibility: hidden; font-family: Roboto, sans-serif; font-size: 12px; font-weight: 200;" fill="rgb(255, 255, 255)" stroke="none" stroke-width="1px">-0.01</text><text x="74.30910714285714" y="0" dx="0em" dy="0.95em" style="text-anchor: middle; visibility: inherit; font-family: Roboto, sans-serif; font-size: 12px; font-weight: 200;" fill="rgb(255, 255, 255)" stroke="none" stroke-width="1px">0</text><text x="148.6182142857143" y="0" dx="0em" dy="0.95em" style="text-anchor: middle; visibility: inherit; font-family: Roboto, sans-serif; font-size: 12px; font-weight: 200;" fill="rgb(255, 255, 255)" stroke="none" stroke-width="1px">0.01</text><text x="222.92732142857142" y="0" dx="0em" dy="0.95em" style="text-anchor: middle; visibility: inherit; font-family: Roboto, sans-serif; font-size: 12px; font-weight: 200;" fill="rgb(255, 255, 255)" stroke="none" stroke-width="1px">0.02</text><text x="297.2364285714286" y="0" dx="0em" dy="0.95em" style="text-anchor: middle; visibility: inherit; font-family: Roboto, sans-serif; font-size: 12px; font-weight: 200;" fill="rgb(255, 255, 255)" stroke="none" stroke-width="1px">0.03</text><text x="371.54553571428573" y="0" dx="0em" dy="0.95em" style="text-anchor: middle; visibility: inherit; font-family: Roboto, sans-serif; font-size: 12px; font-weight: 200;" fill="rgb(255, 255, 255)" stroke="none" stroke-width="1px">0.04</text><text x="445.8546428571429" y="0" dx="0em" dy="0.95em" style="text-anchor: middle; visibility: inherit; font-family: Roboto, sans-serif; font-size: 12px; font-weight: 200;" fill="rgb(255, 255, 255)" stroke="none" stroke-width="1px">0.05</text><text x="520.1637499999999" y="0" dx="0em" dy="0.95em" style="text-anchor: middle; visibility: inherit; font-family: Roboto, sans-serif; font-size: 12px; font-weight: 200;" fill="rgb(255, 255, 255)" stroke="none" stroke-width="1px">0.06</text><text x="594.4728571428572" y="0" dx="0em" dy="0.95em" style="text-anchor: middle; visibility: inherit; font-family: Roboto, sans-serif; font-size: 12px; font-weight: 200;" fill="rgb(255, 255, 255)" stroke="none" stroke-width="1px">0.07</text><text x="668.7819642857143" y="0" dx="0em" dy="0.95em" style="text-anchor: middle; visibility: inherit; font-family: Roboto, sans-serif; font-size: 12px; font-weight: 200;" fill="rgb(255, 255, 255)" stroke="none" stroke-width="1px">0.08</text><text x="743.0910714285714" y="0" dx="0em" dy="0.95em" style="text-anchor: middle; visibility: inherit; font-family: Roboto, sans-serif; font-size: 12px; font-weight: 200;" fill="rgb(255, 255, 255)" stroke="none" stroke-width="1px">0.09</text><text x="817.4001785714287" y="0" dx="0em" dy="0.95em" style="text-anchor: middle; visibility: inherit; font-family: Roboto, sans-serif; font-size: 12px; font-weight: 200;" fill="rgb(255, 255, 255)" stroke="none" stroke-width="1px">0.1</text><text x="891.7092857142857" y="0" dx="0em" dy="0.95em" style="text-anchor: middle; visibility: inherit; font-family: Roboto, sans-serif; font-size: 12px; font-weight: 200;" fill="rgb(255, 255, 255)" stroke="none" stroke-width="1px">0.11</text><text x="966.0183928571429" y="0" dx="0em" dy="0.95em" style="text-anchor: middle; visibility: inherit; font-family: Roboto, sans-serif; font-size: 12px; font-weight: 200;" fill="rgb(255, 255, 255)" stroke="none" stroke-width="1px">0.12</text><text x="1040.3275" y="0" dx="0em" dy="0.95em" style="text-anchor: middle; visibility: hidden; font-family: Roboto, sans-serif; font-size: 12px; font-weight: 200;" fill="rgb(255, 255, 255)" stroke="none" stroke-width="1px">0.13</text></g><line x1="0" y1="0" x2="1040.3275" y2="0" fill="rgb(0, 0, 0)" stroke="rgb(204, 204, 204)" stroke-width="1px"></line></g></g></g></g></svg>