<svg viewBox="0 0 1091.888916015625 400" xmlns="http://www.w3.org/2000/svg"><g><g><g><g><g><line x1="51.5625" y1="377" x2="46.5625" y2="377" style="visibility: inherit;" fill="rgb(0, 0, 0)" stroke="rgb(204, 204, 204)" stroke-width="1px"></line><line x1="51.5625" y1="339.3" x2="46.5625" y2="339.3" style="visibility: inherit;" fill="rgb(0, 0, 0)" stroke="rgb(204, 204, 204)" stroke-width="1px"></line><line x1="51.5625" y1="301.6" x2="46.5625" y2="301.6" style="visibility: inherit;" fill="rgb(0, 0, 0)" stroke="rgb(204, 204, 204)" stroke-width="1px"></line><line x1="51.5625" y1="263.9" x2="46.5625" y2="263.9" style="visibility: inherit;" fill="rgb(0, 0, 0)" stroke="rgb(204, 204, 204)" stroke-width="1px"></line><line x1="51.5625" y1="226.20000000000005" x2="46.5625" y2="226.20000000000005" style="visibility: inherit;" fill="rgb(0, 0, 0)" stroke="rgb(204, 204, 204)" stroke-width="1px"></line><line x1="51.5625" y1="188.49999999999997" x2="46.5625" y2="188.49999999999997" style="visibility: inherit;" fill="rgb(0, 0, 0)" stroke="rgb(204, 204, 204)" stroke-width="1px"></line><line x1="51.5625" y1="150.8" x2="46.5625" y2="150.8" style="visibility: inherit;" fill="rgb(0, 0, 0)" stroke="rgb(204, 204, 204)" stroke-width="1px"></line><line x1="51.5625" y1="113.10000000000002" x2="46.5625" y2="113.10000000000002" style="visibility: inherit;" fill="rgb(0, 0, 0)" stroke="rgb(204, 204, 204)" stroke-width="1px"></line><line x1="51.5625" y1="75.39999999999998" x2="46.5625" y2="75.39999999999998" style="visibility: inherit;" fill="rgb(0, 0, 0)" stroke="rgb(204, 204, 204)" stroke-width="1px"></line><line x1="51.5625" y1="37.69999999999999" x2="46.5625" y2="37.69999999999999" style="visibility: inherit;" fill="rgb(0, 0, 0)" stroke="rgb(204, 204, 204)" stroke-width="1px"></line><line x1="51.5625" y1="0" x2="46.5625" y2="0" style="visibility: inherit;" fill="rgb(0, 0, 0)" stroke="rgb(204, 204, 204)" stroke-width="1px"></line></g><g transform="translate(41.5625, 0)"><text x="0" y="377" dx="0em" dy="0.3em" style="text-anchor: end; visibility: hidden; font-family: Roboto, sans-serif; font-size: 12px; font-weight: 200;" fill="rgb(255, 255, 255)" stroke="none" stroke-width="1px">0.04</text><text x="0" y="339.3" dx="0em" dy="0.3em" style="text-anchor: end; visibility: inherit; font-family: Roboto, sans-serif; font-size: 12px; font-weight: 200;" fill="rgb(255, 255, 255)" stroke="none" stroke-width="1px">0.06</text><text x="0" y="301.6" dx="0em" dy="0.3em" style="text-anchor: end; visibility: inherit; font-family: Roboto, sans-serif; font-size: 12px; font-weight: 200;" fill="rgb(255, 255, 255)" stroke="none" stroke-width="1px">0.08</text><text x="0" y="263.9" dx="0em" dy="0.3em" style="text-anchor: end; visibility: inherit; font-family: Roboto, sans-serif; font-size: 12px; font-weight: 200;" fill="rgb(255, 255, 255)" stroke="none" stroke-width="1px">0.1</text><text x="0" y="226.20000000000005" dx="0em" dy="0.3em" style="text-anchor: end; visibility: inherit; font-family: Roboto, sans-serif; font-size: 12px; font-weight: 200;" fill="rgb(255, 255, 255)" stroke="none" stroke-width="1px">0.12</text><text x="0" y="188.49999999999997" dx="0em" dy="0.3em" style="text-anchor: end; visibility: inherit; font-family: Roboto, sans-serif; font-size: 12px; font-weight: 200;" fill="rgb(255, 255, 255)" stroke="none" stroke-width="1px">0.14</text><text x="0" y="150.8" dx="0em" dy="0.3em" style="text-anchor: end; visibility: inherit; font-family: Roboto, sans-serif; font-size: 12px; font-weight: 200;" fill="rgb(255, 255, 255)" stroke="none" stroke-width="1px">0.16</text><text x="0" y="113.10000000000002" dx="0em" dy="0.3em" style="text-anchor: end; visibility: inherit; font-family: Roboto, sans-serif; font-size: 12px; font-weight: 200;" fill="rgb(255, 255, 255)" stroke="none" stroke-width="1px">0.18</text><text x="0" y="75.39999999999998" dx="0em" dy="0.3em" style="text-anchor: end; visibility: inherit; font-family: Roboto, sans-serif; font-size: 12px; font-weight: 200;" fill="rgb(255, 255, 255)" stroke="none" stroke-width="1px">0.2</text><text x="0" y="37.69999999999999" dx="0em" dy="0.3em" style="text-anchor: end; visibility: inherit; font-family: Roboto, sans-serif; font-size: 12px; font-weight: 200;" fill="rgb(255, 255, 255)" stroke="none" stroke-width="1px">0.22</text><text x="0" y="0" dx="0em" dy="0.3em" style="text-anchor: end; visibility: hidden; font-family: Roboto, sans-serif; font-size: 12px; font-weight: 200;" fill="rgb(255, 255, 255)" stroke="none" stroke-width="1px">0.24</text></g><line x1="51.5625" y1="0" x2="51.5625" y2="377" fill="rgb(0, 0, 0)" stroke="rgb(204, 204, 204)" stroke-width="1px"></line></g></g><g transform="translate(51, 0)" clip-path="url(#clip_0)"><clipPath id="clip_0"><rect width="1040" height="377"></rect></clipPath><g><g><g><line x1="0" y1="0" x2="0" y2="377" fill="rgb(0, 0, 0)" stroke="rgb(189, 189, 189)" stroke-width="1px" opacity="0.25"></line><line x1="115.59194444444445" y1="0" x2="115.59194444444445" y2="377" fill="rgb(0, 0, 0)" stroke="rgb(189, 189, 189)" stroke-width="1px" opacity="0.25"></line><line x1="231.1838888888889" y1="0" x2="231.1838888888889" y2="377" fill="rgb(0, 0, 0)" stroke="rgb(189, 189, 189)" stroke-width="1px" opacity="0.25"></line><line x1="346.77583333333337" y1="0" x2="346.77583333333337" y2="377" fill="rgb(0, 0, 0)" stroke="rgb(189, 189, 189)" stroke-width="1px" opacity="0.25"></line><line x1="462.3677777777778" y1="0" x2="462.3677777777778" y2="377" fill="rgb(0, 0, 0)" stroke="rgb(189, 189, 189)" stroke-width="1px" opacity="0.25"></line><line x1="577.9597222222224" y1="0" x2="577.9597222222224" y2="377" fill="rgb(0, 0, 0)" stroke="rgb(189, 189, 189)" stroke-width="1px" opacity="0.25"></line><line x1="693.5516666666667" y1="0" x2="693.5516666666667" y2="377" fill="rgb(0, 0, 0)" stroke="rgb(189, 189, 189)" stroke-width="1px" opacity="0.25"></line><line x1="809.1436111111112" y1="0" x2="809.1436111111112" y2="377" fill="rgb(0, 0, 0)" stroke="rgb(189, 189, 189)" stroke-width="1px" opacity="0.25"></line><line x1="924.7355555555556" y1="0" x2="924.7355555555556" y2="377" fill="rgb(0, 0, 0)" stroke="rgb(189, 189, 189)" stroke-width="1px" opacity="0.25"></line><line x1="1040.3275" y1="0" x2="1040.3275" y2="377" fill="rgb(0, 0, 0)" stroke="rgb(189, 189, 189)" stroke-width="1px" opacity="0.25"></line></g><g><line x1="0" y1="377" x2="1040.3275" y2="377" fill="rgb(0, 0, 0)" stroke="rgb(189, 189, 189)" stroke-width="1px" opacity="0.25"></line><line x1="0" y1="339.3" x2="1040.3275" y2="339.3" fill="rgb(0, 0, 0)" stroke="rgb(189, 189, 189)" stroke-width="1px" opacity="0.25"></line><line x1="0" y1="301.6" x2="1040.3275" y2="301.6" fill="rgb(0, 0, 0)" stroke="rgb(189, 189, 189)" stroke-width="1px" opacity="0.25"></line><line x1="0" y1="263.9" x2="1040.3275" y2="263.9" fill="rgb(0, 0, 0)" stroke="rgb(189, 189, 189)" stroke-width="1px" opacity="0.25"></line><line x1="0" y1="226.20000000000005" x2="1040.3275" y2="226.20000000000005" fill="rgb(0, 0, 0)" stroke="rgb(189, 189, 189)" stroke-width="1px" opacity="0.25"></line><line x1="0" y1="188.49999999999997" x2="1040.3275" y2="188.49999999999997" fill="rgb(0, 0, 0)" stroke="rgb(189, 189, 189)" stroke-width="1px" opacity="0.25"></line><line x1="0" y1="150.8" x2="1040.3275" y2="150.8" fill="rgb(0, 0, 0)" stroke="rgb(189, 189, 189)" stroke-width="1px" opacity="0.25"></line><line x1="0" y1="113.10000000000002" x2="1040.3275" y2="113.10000000000002" fill="rgb(0, 0, 0)" stroke="rgb(189, 189, 189)" stroke-width="1px" opacity="0.25"></line><line x1="0" y1="75.39999999999998" x2="1040.3275" y2="75.39999999999998" fill="rgb(0, 0, 0)" stroke="rgb(189, 189, 189)" stroke-width="1px" opacity="0.25"></line><line x1="0" y1="37.69999999999999" x2="1040.3275" y2="37.69999999999999" fill="rgb(0, 0, 0)" stroke="rgb(189, 189, 189)" stroke-width="1px" opacity="0.25"></line><line x1="0" y1="0" x2="1040.3275" y2="0" fill="rgb(0, 0, 0)" stroke="rgb(189, 189, 189)" stroke-width="1px" opacity="0.25"></line></g></g></g><g><g><line x1="0" y1="452.4" x2="1040.3275" y2="452.4" fill="rgb(0, 0, 0)" stroke="rgb(153, 153, 153)" stroke-width="1.5px"></line></g></g><g><g><line x1="115.59194444444445" y1="0" x2="115.59194444444445" y2="377" fill="rgb(0, 0, 0)" stroke="rgb(153, 153, 153)" stroke-width="1.5px"></line></g></g><g><g><g><g><g><path stroke="rgb(0, 119, 187)" stroke-width="2px" d="M118.42394708333335,16.743452826142295L121.31374569444445,18.948766009509548L124.20354430555557,19.615936859043273L127.09334291666669,20.701136176759245L129.98314152777778,22.212663125958752L132.87294013888888,23.83307324797985L135.76273875,26.18284121533409L138.65253736111111,27.816017613115896L141.54233597222225,30.732089228139785L144.43213458333335,33.410635684089186L147.32193319444445,36.77514802820466L150.2117318055556,40.535963283805586L153.1015304166667,42.20280495944947L155.9913290277778,47.25546336584712L158.88112763888893,49.98014583426891L161.77092625,55.40412131909275L164.6607248611111,59.416960358967316L167.55052347222224,63.54735296439591L170.44032208333334,64.16809511865355L173.33012069444445,71.09028513496759L176.21991930555558,74.43812802612031L179.10971791666668,79.07145086106496L181.9995165277778,80.37235585098026L184.88931513888892,85.49680611265275L187.77911375000002,89.43202195403622L190.66891236111115,89.96963474331093L193.55871097222223,88.85845256431793L196.44850958333333,94.1525943674343L199.33830819444447,101.8014836454775L202.22810680555557,106.43859989663792L205.11790541666667,112.31296215384639L208.0077040277778,121.54986376085523L210.8975026388889,125.9213125892895L213.78730125,130.14627072687747L216.67709986111115,136.9157839810843L219.56689847222225,132.3315686322873L222.45669708333335,137.08721352764348L225.34649569444446,140.86545985401932L228.23629430555556,145.63232342507268L231.1260929166667,141.6350151169857L234.0158915277778,150.1508272613973L236.9056901388889,163.3752266402638L239.79548875000003,160.90608556173052L242.68528736111114,162.71989847871382L245.57508597222224,165.38132133662188L248.46488458333337,178.20168481060048L251.35468319444448,179.46746930120068L254.24448180555558,183.21905948669794L257.1342804166667,186.09781826470848L260.0240790277778,178.0346711487986L262.91387763888895,182.4405344350204L265.80367625,188.73061587711413L268.69347486111116,197.5137655669618L271.58327347222223,195.3290521856624L274.4730720833333,194.6717580626292L277.3628706944445,196.6182592111763L280.25266930555557,187.73807188617602L283.1424679166667,197.7476532122353L286.0322665277778,196.49431855802874L288.9220651388889,199.9996304507564L291.81186375000004,196.81891950103696L294.7016623611112,201.33456707437676L297.59146097222225,206.03285949849987L300.4812595833334,220.58308146908234L303.37105819444446,218.72471711703747L306.26085680555553,225.5427307204521L309.1506554166667,219.46461332894066L312.0404540277778,216.3580569127601L314.93025263888893,219.7412530547024L317.82005125,219.80009194169284L320.70984986111114,220.8657052341333L323.5996484722222,231.28799838323778L326.4894470833334,230.70509300291172L329.3792456944445,245.6541912213542L332.2690443055556,241.08471112344134L335.1588429166667,237.07171215411108L338.0486415277778,229.62644237217947L340.93844013888895,233.94056303225545L343.82823875,225.9981253237878L346.71803736111116,236.31287864454717L349.60783597222223,227.05121588831022L352.49763458333337,238.31052862539815L355.38743319444444,238.17607324740246L358.27723180555563,252.04761354637716L361.1670304166667,255.12639637060505L364.05682902777784,259.3887933276149L366.9466276388889,254.36323490989523L369.83642625000005,251.78760019452756L372.7262248611111,262.5925349659406L375.61602347222225,250.41279232959053L378.5058220833334,260.6852470043903L381.39562069444446,251.0375013538364L384.2854193055556,243.60960931767008L387.17521791666667,251.5094478564798L390.06501652777786,253.73336285336848L392.95481513888893,243.2623055790903L395.84461375000006,248.05290648788463L398.73441236111114,258.1117525431529L401.6242109722223,250.77708022850837L404.51400958333335,249.31472446416672L407.4038081944445,255.6739852994374L410.2936068055556,258.3884876686151L413.1834054166667,268.5588470147738L416.0732040277778,264.5322814230137L418.9630026388889,262.146705940605L421.8528012500001,269.022208372498L424.74259986111116,255.332719582763L427.6323984722223,263.6646179166118L430.52219708333337,260.7805708895135L433.4119956944445,264.49662932515196L436.3017943055556,269.7195298961404L439.1915929166667,266.8258645595075L442.08139152777784,258.5407763165809L444.9711901388889,272.10538734809023L447.86098875000005,278.11594142565406L450.7507873611111,278.42480224459933L453.64058597222225,278.8191322874401L456.5303845833334,274.6049764455184L459.4201831944445,262.8619717097773L462.3099818055556,267.4569304821786L465.1997804166667,266.5240295170484L468.0895790277778,280.5447790204726L470.97937763888893,281.0733348601605L473.86917625000007,291.2001452048746L476.75897486111114,284.4576492792444L479.6487734722223,285.15245503163794L482.53857208333335,288.7993298445729L485.4283706944445,284.2849093278997L488.3181693055556,294.5677475011797L491.20796791666675,282.4295351348192L494.0977665277778,293.3571451188249L496.98756513888895,288.83454912251966L499.87736375000003,288.4830592539712L502.7671623611111,283.04739955525423L505.6569609722223,286.34487549698844L508.54675958333337,286.665499233225L511.4365581944445,288.05940646470725L514.3263568055556,292.19272245252813L517.2161554166667,284.8990786098521L520.1059540277779,285.9291952778745L522.9957526388889,299.97170357643654L525.88555125,294.177343531484L528.7753498611112,289.14361980261475L531.6651484722223,292.5469204056387L534.5549470833334,287.52010694909836L537.4447456944445,291.0655646793171L540.3345443055556,293.0265318085029L543.2243429166667,284.0029912346169L546.1141415277779,277.32346022209913L549.0039401388889,287.147999585756L551.89373875,296.89369929855366L554.7835373611111,293.7935403235274L557.6733359722223,298.7152959470461L560.5631345833334,297.94274428036874L563.4529331944445,294.17711825458446L566.3427318055557,292.52467741005563L569.2325304166667,303.8115877540883L572.1223290277778,302.2631171638952L575.012127638889,298.8925210330001L577.9019262500001,301.5125157864756L580.7917248611111,300.00413286935486L583.6815234722222,299.92688801497934L586.5713220833334,282.8223814827843L589.4611206944445,281.08622377351776L592.3509193055556,295.54725515148556L595.2407179166668,303.6772006803841L598.1305165277779,287.57087818766183L601.0203151388889,281.7862337415489L603.91011375,292.4855277058525L606.7999123611112,306.31943933528925L609.6897109722223,296.77069415725623L612.5795095833333,289.48882230327933L615.4693081944445,290.4516233164455L618.3591068055556,289.49900968482405L621.2489054166667,281.8905114961285L624.1387040277777,280.8996645326983L627.028502638889,297.3521760002119L629.9183012500001,306.73567000063315L632.8080998611111,306.5974114634517L635.6978984722223,301.2037279401972L638.5876970833334,308.9828679296227L641.4774956944445,308.07858971910787L644.3672943055556,317.86005408619116L647.2570929166667,298.2522447386638L650.1468915277778,309.3242361747775L653.036690138889,310.4291954912874L655.92648875,317.39061575461227L658.8162873611112,321.2493747468519L661.7060859722224,311.23738659058375L664.5958845833334,310.2469627334736L667.4856831944445,298.02337890172373L670.3754818055556,302.0613499963544L673.2652804166668,309.21077362264765L676.1550790277778,294.837347910795L679.0448776388889,302.99642451524346L681.93467625,306.2727541865087L684.8244748611112,295.384179249476L687.7142734722222,305.5734048670951L690.6040720833334,300.1464945671811L693.4938706944446,294.28475734340276L696.3836693055557,304.92336367277574L699.2734679166667,295.33256315176646L702.1632665277779,297.55046168914413L705.053065138889,297.98319981128554L707.94286375,298.9789236291086L710.8326623611111,301.3578773924014L713.7224609722223,302.73720675696734L716.6122595833334,294.24776381307726L719.5020581944444,300.6426358202331L722.3918568055557,301.92717357511714L725.2816554166668,304.961209745022L728.1714540277779,314.70567528117436L731.061252638889,314.27301585560286L733.9510512500001,320.95132072857166L736.8408498611112,324.5508659851023L739.7306484722222,326.3365978647154L742.6204470833334,318.6321362560321L745.5102456944445,321.1609181204634L748.4000443055556,307.08227981920226L751.2898429166667,308.0414931380462L754.1796415277778,299.84405285201734L757.069440138889,296.17781051803985L759.9592387500002,299.4541628653369L762.8490373611112,310.6730793627835L765.7388359722223,305.2702055616818L768.6286345833335,315.764187193134L771.5184331944445,315.056156010758L774.4082318055556,332.18278766562406L777.2980304166667,327.59720711105984L780.1878290277779,310.3044456797476L783.0776276388889,297.4816685418865L785.96742625,304.3462798065293L788.8572248611113,294.33916067638086L791.7470234722224,314.45575192068867L794.6368220833334,301.3549887871435L797.5266206944445,306.21055561874454L800.4164193055557,314.39295173987233L803.3062179166667,309.4913418436318L806.1960165277778,298.192491036908L809.085815138889,307.0175426681376L811.9756137500001,311.508282130333L814.8654123611111,308.4487578966452L817.7552109722222,310.7195141648193L820.6450095833335,299.67011000781895L823.5348081944446,291.18013118010543L826.4246068055556,293.0820587897407L829.3144054166668,305.35877381170434L832.2042040277779,295.08287598493484L835.0940026388889,314.6443628871607L837.98380125,302.44659675444166L840.8735998611112,299.96764625242355L843.7633984722223,303.54446993011834L846.6531970833333,311.5819980909741L849.5429956944445,309.87902382435294L852.4327943055557,315.71008162511527L855.3225929166668,317.10633974023546L858.2123915277779,319.9767887553446L861.102190138889,322.81037028556307L863.9919887500001,326.51449547425057L866.8817873611112,321.1791920203873L869.7715859722223,328.1762348129695L872.6613845833334,312.3623848035541L875.5511831944445,306.2812552264098L878.4409818055556,303.69104354207303L881.3307804166667,313.033794163016L884.2205790277778,309.7759070899174L887.1103776388891,313.34171451724086L890.0001762500001,303.76536191222976L892.8899748611112,304.01077217947187L895.7797734722224,295.6414267610952L898.6695720833334,303.25005574831033L901.5593706944445,295.5728904599468L904.4491693055556,300.5164814623904L907.3389679166668,305.4208117719121L910.2287665277778,299.61030038330716L913.1185651388889,299.6248104318009L916.0083637500001,304.7388378980175L918.8981623611113,308.3534276969681L921.7879609722223,298.6298127232462L924.6777595833335,311.11955270877297L927.5675581944446,298.45383011883985" style="fill: none;" fill="none"></path></g><g><path stroke="rgb(255, 112, 67)" stroke-width="2px" d="M118.42394708333335,81.30957362949846L121.31374569444445,82.44890351556244L124.20354430555557,85.88875219268458L127.09334291666669,82.56458347604114L129.98314152777778,85.16137085335478L132.87294013888888,84.75076006436883L135.76273875,87.42309263345726L138.65253736111111,85.02802628256272L141.54233597222225,87.24898238941871L144.43213458333335,89.3042668119945L147.32193319444445,88.09630399383288L150.2117318055556,89.59169869050946L153.1015304166667,89.41766717360493L155.9913290277778,90.47803212137676L158.88112763888893,89.73444396472183L161.77092625,90.99991344186745L164.6607248611111,90.781640635809L167.55052347222224,91.26223099252645L170.44032208333334,94.07976868941304L173.33012069444445,95.189870364519L176.21991930555558,91.75629379354154L179.10971791666668,92.0992262535177L181.9995165277778,90.59804220997604L184.88931513888892,92.08588919874882L187.77911375000002,92.76498341174089L190.66891236111115,92.93907747885535L193.55871097222223,91.86697599725112L196.44850958333333,92.0184688964139L199.33830819444447,92.61544428759564L202.22810680555557,92.86413964818635L205.11790541666667,91.9031344020634L208.0077040277778,92.63345319029223L210.8975026388889,92.36518016128102L213.78730125,93.17934330214229L216.67709986111115,91.14475779915553L219.56689847222225,88.25895396942435L222.45669708333335,88.87674222776869L225.34649569444446,93.82335473341448L228.23629430555556,94.20378096690715L231.1260929166667,93.44260702264447L234.0158915277778,92.25394513113616L236.9056901388889,91.05331936124786L239.79548875000003,88.98076565351143L242.68528736111114,89.68472334686827L245.57508597222224,89.57005346740428L248.46488458333337,90.46123304089589L251.35468319444448,89.3572017354593L254.24448180555558,92.27068651699553L257.1342804166667,94.9432884907101L260.0240790277778,93.22502515406256L262.91387763888895,93.99483299429099L265.80367625,94.68512368068228L268.69347486111116,97.96825430074982L271.58327347222223,95.14098909425235L274.4730720833333,94.86711982206978L277.3628706944445,92.55565394113262L280.25266930555557,93.58344663828517L283.1424679166667,95.19479890614713L286.0322665277778,96.74933799236999L288.9220651388889,99.31301430898912L291.81186375000004,97.41747900627848L294.7016623611112,97.83619253863574L297.59146097222225,97.87463198679498L300.4812595833334,99.61008324729085L303.37105819444446,100.5022030657929L306.26085680555553,98.68387877621655L309.1506554166667,95.24689443873406L312.0404540277778,92.26108033399011L314.93025263888893,95.24463526928561L317.82005125,94.88908452465614L320.70984986111114,100.13234142228654L323.5996484722222,100.93742917397428L326.4894470833334,100.10703226339108L329.3792456944445,97.71527942425784L332.2690443055556,97.72728955749733L335.1588429166667,101.28343406083626L338.0486415277778,102.6196716509011L340.93844013888895,100.22587642918502L343.82823875,98.77924018770739L346.71803736111116,99.16811491412095L349.60783597222223,99.70087640858986L352.49763458333337,99.80455375896278L355.38743319444444,98.95139474145401L358.27723180555563,98.75527237100496L361.1670304166667,99.92051048781333L364.05682902777784,100.40935896221318L366.9466276388889,97.49107477655124L369.83642625000005,99.98517028206652L372.7262248611111,99.88575187512674L375.61602347222225,101.95568410032052L378.5058220833334,100.64081997318895L381.39562069444446,99.96240239884754L384.2854193055556,99.91814535943448L387.17521791666667,97.38231620602473L390.06501652777786,99.17546376593512L392.95481513888893,101.06185703639747L395.84461375000006,107.12783073046545L398.73441236111114,104.41538267289846L401.6242109722223,107.60523633095774L404.51400958333335,104.11827790458894L407.4038081944445,103.17039109063087L410.2936068055556,99.55313742394407L413.1834054166667,100.68038605949377L416.0732040277778,103.9479055517977L418.9630026388889,106.57029911125093L421.8528012500001,103.75185527112717L424.74259986111116,109.01442477885863L427.6323984722223,104.8584583901404L430.52219708333337,105.96732031482688L433.4119956944445,106.55901139842413L436.3017943055556,106.48711168448295L439.1915929166667,106.88190822172264L442.08139152777784,108.52489467244203L444.9711901388889,103.66790219772376L447.86098875000005,104.96438093917673L450.7507873611111,107.7967760058469L453.64058597222225,106.83075377060337L456.5303845833334,105.21244318672035L459.4201831944445,104.6657758056403L462.3099818055556,104.34688734765534L465.1997804166667,107.79944370004938L468.0895790277778,106.60049911387809L470.97937763888893,107.13310140161538L473.86917625000007,112.12224999897973L476.75897486111114,111.67706569095427L479.6487734722223,109.80757405555232L482.53857208333335,108.13738562939156L485.4283706944445,109.6307503394937L488.3181693055556,108.96501559452146L491.20796791666675,107.33168358824211L494.0977665277778,110.4902268577907L496.98756513888895,109.48058915074428L499.87736375000003,112.28177348098612L502.7671623611111,110.38198520494376L505.6569609722223,109.22140525789781L508.54675958333337,108.8606721795304L511.4365581944445,108.18636423329731L514.3263568055556,106.93390553939471L517.2161554166667,106.63342231123526L520.1059540277779,109.7660022211604L522.9957526388889,110.34506634429292L525.88555125,113.08206575605391L528.7753498611112,108.91098541672898L531.6651484722223,106.24517563733978L534.5549470833334,106.0803476414295L537.4447456944445,107.82781024582457L540.3345443055556,108.1715987825827L543.2243429166667,106.13887757446984L546.1141415277779,110.69218947879446L549.0039401388889,112.73940809364302L551.89373875,114.93077681300151L554.7835373611111,119.41775479577245L557.6733359722223,119.04603864110865L560.5631345833334,118.87201809261659L563.4529331944445,112.85340873583809L566.3427318055557,110.04241121879015L569.2325304166667,111.73456738394972L572.1223290277778,113.52922107936429L575.012127638889,107.06442504979067L577.9019262500001,109.05891474161676L580.7917248611111,109.03018894597369L583.6815234722222,110.56211207154084L586.5713220833334,112.42921425368003L589.4611206944445,111.35776011386875L592.3509193055556,111.60496200227358L595.2407179166668,111.29404430808792L598.1305165277779,109.83586256994109L601.0203151388889,108.2729379468757L603.91011375,110.99115073642719L606.7999123611112,113.76118709779733L609.6897109722223,112.78116437039947L612.5795095833333,115.86136496569023L615.4693081944445,115.10297858777827L618.3591068055556,115.74958513774382L621.2489054166667,112.33059918402378L624.1387040277777,110.85765483450142L627.028502638889,111.03187677902724L629.9183012500001,119.29209557916371L632.8080998611111,116.93203348723439L635.6978984722223,112.41401626114481L638.5876970833334,115.74397058513418L641.4774956944445,117.97683203117045L644.3672943055556,117.43552805480958L647.2570929166667,113.18869957386013L650.1468915277778,113.47702075635527L653.036690138889,115.6974204671093L655.92648875,117.31534473012137L658.8162873611112,112.91808119720368L661.7060859722224,116.77385041061723L664.5958845833334,117.73703248824884L667.4856831944445,117.45205721334342L670.3754818055556,116.75863367125825L673.2652804166668,120.29706245902436L676.1550790277778,118.18251407053032L679.0448776388889,113.9001945525763L681.93467625,114.87164048733456L684.8244748611112,112.78985772718276L687.7142734722222,110.19828356974891L690.6040720833334,114.58290580674154L693.4938706944446,113.21110840060797L696.3836693055557,113.98101814996292L699.2734679166667,119.75582714087426L702.1632665277779,117.3728497553269L705.053065138889,119.99105909993652L707.94286375,122.00328047949317L710.8326623611111,118.27134096311477L713.7224609722223,119.08872096113531L716.6122595833334,119.90153969509699L719.5020581944444,117.40432461967049L722.3918568055557,119.26345902365433L725.2816554166668,119.01855952311743L728.1714540277779,122.61470726352447L731.061252638889,118.29582962287373L733.9510512500001,120.89482084806504L736.8408498611112,123.0354042619213L739.7306484722222,126.14209226547148L742.6204470833334,124.20148092733903L745.5102456944445,122.1721285690491L748.4000443055556,123.4164233189597L751.2898429166667,126.4658681775197L754.1796415277778,120.06021240860606L757.069440138889,122.76737083858477L759.9592387500002,119.58723049441713L762.8490373611112,118.69191205310662L765.7388359722223,119.54675146584415L768.6286345833335,120.67720179107609L771.5184331944445,121.34761838881263L774.4082318055556,120.47297902326638L777.2980304166667,121.75033197415384L780.1878290277779,117.90110927350827L783.0776276388889,116.31385943369571L785.96742625,114.20433419750037L788.8572248611113,118.40134096983613L791.7470234722224,123.8079161432L794.6368220833334,122.23924641887025L797.5266206944445,122.40440186071206L800.4164193055557,122.83834600334049L803.3062179166667,124.76694466164517L806.1960165277778,126.84152537638428L809.085815138889,125.25781025084547L811.9756137500001,121.33682032342368L814.8654123611111,119.40814085910095L817.7552109722222,117.12275661056856L820.6450095833335,121.38037571683897L823.5348081944446,117.30771316871265L826.4246068055556,120.32614095440637L829.3144054166668,121.8253232957788L832.2042040277779,125.64267446290658L835.0940026388889,117.97976838523866L837.98380125,116.99018535360527L840.8735998611112,120.84070653286477L843.7633984722223,122.53738250831901L846.6531970833333,119.07946676075541L849.5429956944445,120.23514123952435L852.4327943055557,122.29103833911448L855.3225929166668,124.08171012447848L858.2123915277779,122.54726948169808L861.102190138889,123.38192343966925L863.9919887500001,125.71517693315008L866.8817873611112,127.18047455498011L869.7715859722223,122.44572418420567L872.6613845833334,126.81636393719351L875.5511831944445,129.88179629596138L878.4409818055556,128.00519182772675L881.3307804166667,127.37369118983294L884.2205790277778,129.00075013908594L887.1103776388891,125.85004928155448L890.0001762500001,123.75442404177012L892.8899748611112,120.6006579233779L895.7797734722224,124.62955003938512L898.6695720833334,128.64749115444087L901.5593706944445,125.75605514846366L904.4491693055556,123.07917756916353L907.3389679166668,122.69726843643946L910.2287665277778,127.52760365372158L913.1185651388889,128.3515225253418L916.0083637500001,128.40844307910888L918.8981623611113,121.52011557323624L921.7879609722223,121.07400666178997L924.6777595833335,126.40387769998154L927.5675581944446,126.30577245391036" style="fill: none;" fill="none"></path></g></g></g></g><g opacity="0.2"><g><g><g><path stroke="rgb(0, 119, 187)" stroke-width="2px" d="M118.42394708333335,16.743452826142295L121.31374569444445,20.2719539195299L124.20354430555557,20.256420874595626L127.09334291666669,21.977330574393257L129.98314152777778,24.186112710833534L132.87294013888888,26.07468379437922L135.76273875,29.54304700493811L138.65253736111111,30.19720447957514L141.54233597222225,35.03272844254969L144.43213458333335,37.38796500265597L147.32193319444445,41.79140066504477L150.2117318055556,46.156719976663574L153.1015304166667,44.69762494564055L155.9913290277778,54.82455229163168L158.88112763888893,54.063966774940475L161.77092625,63.53625913858412L164.6607248611111,65.43452081978319L167.55052347222224,69.74189316630361L170.44032208333334,65.09911378622053L173.33012069444445,81.4729374438524L176.21991930555558,79.45970875918863L179.10971791666668,86.02128265202043L181.9995165277778,82.3236876517534L184.88931513888892,93.1834208011627L187.77911375000002,95.3348177462816L190.66891236111115,90.77605163455007L193.55871097222223,87.19168213903902L196.44850958333333,102.09379894435403L199.33830819444447,113.27481051683424L202.22810680555557,113.394271710515L205.11790541666667,121.12450359165666L208.0077040277778,135.40521433353422L210.8975026388889,132.47848531007764L213.78730125,136.48370763063429L216.67709986111115,147.0700535714626L219.56689847222225,125.45524572730062L222.45669708333335,144.22068079710004L225.34649569444446,146.5328293085098L228.23629430555556,152.78261875510213L231.1260929166667,135.63905266821382L234.0158915277778,162.92454546093938L236.9056901388889,183.21182569265363L239.79548875000003,157.20237394571302L242.68528736111114,165.44061785340307L245.57508597222224,169.37345562279222L248.46488458333337,197.43223001956937L251.35468319444448,181.3661460369825L254.24448180555558,188.8464447647333L257.1342804166667,190.41595643162725L260.0240790277778,165.93995047509668L262.91387763888895,189.04932936429975L265.80367625,198.1657380402088L268.69347486111116,210.68849010169504L271.58327347222223,192.05198211371896L274.4730720833333,193.68581687808035L277.3628706944445,199.53801093399522L280.25266930555557,174.41779089868066L283.1424679166667,212.76202520132063L286.0322665277778,194.61431657671926L288.9220651388889,205.25759828984735L291.81186375000004,192.04785307645795L294.7016623611112,208.10803843438623L297.59146097222225,213.08029813468454L300.4812595833334,242.40841442495582L303.37105819444446,215.93717058897016L306.26085680555553,235.7697511255741L309.1506554166667,210.34743724167345L312.0404540277778,211.69822228848932L314.93025263888893,224.81604726761577L317.82005125,219.88835027217863L320.70984986111114,222.46412517279384L323.5996484722222,246.92143810689447L326.4894470833334,229.83073493242262L329.3792456944445,268.0778385490179L332.2690443055556,234.230490976572L335.1588429166667,231.05221370011566L338.0486415277778,218.45853769928215L340.93844013888895,240.41174402236936L343.82823875,214.08446876108644L346.71803736111116,251.78500862568615L349.60783597222223,213.15872175395486L352.49763458333337,255.19949773102996L355.38743319444444,237.97439018040893L358.27723180555563,272.85492399483917L361.1670304166667,259.7445706069469L364.05682902777784,265.7823887631297L366.9466276388889,246.82489728331564L369.83642625000005,247.92414812147615L372.7262248611111,278.7999371230602L375.61602347222225,232.1431783750653L378.5058220833334,276.0939290165901L381.39562069444446,236.56588287800548L384.2854193055556,232.46777126342056L387.17521791666667,263.3592056646943L390.06501652777786,257.06923534870145L392.95481513888893,227.5557196676731L395.84461375000006,255.2388078510761L398.73441236111114,273.2000216260552L401.6242109722223,239.7750717565417L404.51400958333335,247.1211908176541L407.4038081944445,265.21287655234335L410.2936068055556,262.46024122238157L413.1834054166667,283.8143860340118L416.0732040277778,258.49243303537367L418.9630026388889,258.5683427169919L421.8528012500001,279.33546202033756L424.74259986111116,234.79848639816043L427.6323984722223,276.1624654173851L430.52219708333337,256.45450034886596L433.4119956944445,270.07071697860954L436.3017943055556,277.55388075262306L439.1915929166667,262.48536655455825L442.08139152777784,246.11314395219085L444.9711901388889,292.45230389535425L447.86098875000005,287.1317725419998L450.7507873611111,278.8880934730172L453.64058597222225,279.41062735170124L456.5303845833334,268.28374268263576L459.4201831944445,245.24746460616586L462.3099818055556,274.3493686407804L465.1997804166667,265.1246780693531L468.0895790277778,301.575903275609L470.97937763888893,281.8661686196923L473.86917625000007,306.39036072194574L476.75897486111114,274.343905390799L479.6487734722223,286.19466366022823L482.53857208333335,294.2696420639753L485.4283706944445,277.5132785528898L488.3181693055556,309.9920047610998L491.20796791666675,264.2222165852785L494.0977665277778,309.74856009483335L496.98756513888895,282.05065512806175L499.87736375000003,287.9558244511485L502.7671623611111,274.89391000717876L505.6569609722223,291.29108940958974L508.54675958333337,287.1464348375797L511.4365581944445,290.15026731193063L514.3263568055556,298.3926964342594L517.2161554166667,273.95861284583805L520.1059540277779,287.47437027990816L522.9957526388889,321.0354660242796L525.88555125,285.48580346405504L528.7753498611112,281.593034209311L531.6651484722223,297.65187131017444L534.5549470833334,279.9798867642879L537.4447456944445,296.3837512746453L540.3345443055556,295.96798250228164L543.2243429166667,270.46768037378786L546.1141415277779,267.3041637033224L549.0039401388889,301.8848086312413L551.89373875,311.51224886775015L554.7835373611111,289.1433018609881L557.6733359722223,306.0979293823242L560.5631345833334,296.78391678035257L563.4529331944445,288.528679215908L566.3427318055557,290.04601614326236L569.2325304166667,320.7419532701373L572.1223290277778,299.94041127860544L575.012127638889,293.8366268366575L577.9019262500001,305.4425079166889L580.7917248611111,297.7415584936738L583.6815234722222,299.81102073341606L586.5713220833334,257.1656216844916L589.4611206944445,278.48198720961807L592.3509193055556,317.2388022184372L595.2407179166668,315.872118973732L598.1305165277779,263.41139444857833L601.0203151388889,273.10926707237957L603.91011375,308.53446865230796L606.7999123611112,327.0703067794442L609.6897109722223,282.4475763902068L612.5795095833333,278.56601452231405L615.4693081944445,291.8958248361945L618.3591068055556,288.0700892373919L621.2489054166667,270.47776421308515L624.1387040277777,279.413394087553L627.028502638889,322.0309432014823L629.9183012500001,320.810911001265L632.8080998611111,306.39002365767954L635.6978984722223,293.1132026553154L638.5876970833334,320.6515779137611L641.4774956944445,306.72217240333555L644.3672943055556,332.532250636816L647.2570929166667,268.84053071737287L650.1468915277778,325.932223328948L653.036690138889,312.08663446605203L655.92648875,327.83274614959953L658.8162873611112,327.03751323521135L661.7060859722224,296.2194043561816L664.5958845833334,308.76132694780824L667.4856831944445,279.68800315409896L670.3754818055556,308.1183066383004L673.2652804166668,319.9349090620875L676.1550790277778,273.2772093430161L679.0448776388889,315.235039421916L681.93467625,311.18724869340656L684.8244748611112,279.0513168439269L687.7142734722222,320.85724329352377L690.6040720833334,292.00612911731L693.4938706944446,285.49215150773523L696.3836693055557,320.8812731668353L699.2734679166667,280.9463623702526L702.1632665277779,300.8773094952106L705.053065138889,298.63230699449775L707.94286375,300.47250935584304L710.8326623611111,304.9263080373406L713.7224609722223,304.8062008038163L716.6122595833334,281.51359939724205L719.5020581944444,310.2349438309669L722.3918568055557,303.8539802074432L725.2816554166668,309.51226399987934L728.1714540277779,329.32237358540294L731.061252638889,313.62402671724556L733.9510512500001,330.9687780380249L736.8408498611112,329.9501838698983L739.7306484722222,329.01519568413494L742.6204470833334,307.07544384300706L745.5102456944445,324.9540909171104L748.4000443055556,285.9643223673105L751.2898429166667,309.480313116312L754.1796415277778,287.5478924229741L757.069440138889,290.6784470170736L759.9592387500002,304.3686913862824L762.8490373611112,327.50145410895345L765.7388359722223,297.1658948600292L768.6286345833335,331.5051596403122L771.5184331944445,313.99410923719404L774.4082318055556,357.8727351479232L777.2980304166667,320.7188362792134L780.1878290277779,284.3653035327792L783.0776276388889,278.2475028350949L785.96742625,314.6431967034936L788.8572248611113,279.32848198115823L791.7470234722224,344.63063878715036L794.6368220833334,281.7038440868258L797.5266206944445,313.49390586614606L800.4164193055557,326.6665459215641L803.3062179166667,302.1389269992709L806.1960165277778,281.24421482682226L809.085815138889,320.2551201149821L811.9756137500001,318.244391323626L814.8654123611111,303.85947154611347L817.7552109722222,314.1256485670805L820.6450095833335,283.09600377231834L823.5348081944446,278.4451629385352L826.4246068055556,295.93495020419357L829.3144054166668,323.77384634464977L832.2042040277779,279.6690292447805L835.0940026388889,343.9865932404995L837.98380125,284.14994755536316L840.8735998611112,296.2492204993963L843.7633984722223,308.9097054466605L846.6531970833333,323.6382903322577L849.5429956944445,307.3245624244213L852.4327943055557,324.45666832625864L855.3225929166668,319.2007269129157L858.2123915277779,324.28246227800844L861.102190138889,327.06074258089063L863.9919887500001,332.07068325728176L866.8817873611112,313.17623683959243L869.7715859722223,338.6717990018427L872.6613845833334,288.6416097894311L875.5511831944445,297.15956086069343L878.4409818055556,299.80572601556776L881.3307804166667,327.0479200944304L884.2205790277778,304.8890764802694L887.1103776388891,318.690425658226L890.0001762500001,289.40083300471304L892.8899748611112,304.3788875803351L895.7797734722224,283.0874086335301L898.6695720833334,314.6629992291331L901.5593706944445,284.0571425274014L904.4491693055556,307.93186796605585L907.3389679166668,312.7773072361946L910.2287665277778,290.89453330039976L913.1185651388889,299.6465755045414L916.0083637500001,312.40987909734247L918.8981623611113,313.7753123953938L921.7879609722223,284.04439026266334L924.6777595833335,329.8541626870632L927.5675581944446,279.4552462339401" style="fill: none;" fill="none"></path></g><g><path stroke="rgb(255, 112, 67)" stroke-width="2px" d="M118.42394708333335,81.30957362949846L121.31374569444445,83.13250144720075L124.20354430555557,89.19100692272184L127.09334291666669,78.6553610652685L129.98314152777778,88.55173645317552L132.87294013888888,84.18273752331731L135.76273875,91.24457096457479L138.65253736111111,81.53599655032156L141.54233597222225,90.52446124851701L144.43213458333335,92.35612464845178L147.32193319444445,86.29531590044496L150.2117318055556,91.82665286362169L153.1015304166667,89.15718814134596L155.9913290277778,92.06650217771528L158.88112763888893,88.6199357897043L161.77092625,92.89722515046594L164.6607248611111,90.45432379245756L167.55052347222224,91.98299450576303L170.44032208333334,98.3056460112333L173.33012069444445,96.8549214094877L176.21991930555558,86.60611724257467L179.10971791666668,92.61361365914343L181.9995165277778,88.34629578292368L184.88931513888892,94.31764205694196L187.77911375000002,93.7836199045181L190.66891236111115,93.20021783709524L193.55871097222223,90.25882651805875L196.44850958333333,92.24570801258085L199.33830819444447,93.51090682446954L202.22810680555557,93.23718255162237L205.11790541666667,90.46162685155866L208.0077040277778,93.72893122732637L210.8975026388889,91.96277064979074L213.78730125,94.4005879551172L216.67709986111115,88.09287963211534L219.56689847222225,83.93024829924104L222.45669708333335,89.80342460572717L225.34649569444446,101.24327344596384L228.23629430555556,94.77442031502721L231.1260929166667,92.30084610879419L234.0158915277778,90.470952296257L236.9056901388889,89.25238070785997L239.79548875000003,85.87193509340284L242.68528736111114,90.74065988659856L245.57508597222224,89.39804864823816L248.46488458333337,91.79800240099428L251.35468319444448,87.70115477740762L254.24448180555558,96.64091368913648L257.1342804166667,98.95219145119188L260.0240790277778,90.64763014912603L262.91387763888895,95.14954475462434L265.80367625,95.72055971026418L268.69347486111116,102.89295023083685L271.58327347222223,90.90009128451345L274.4730720833333,94.4563159137964L277.3628706944445,89.08845511972902L280.25266930555557,95.12513568401334L283.1424679166667,97.6118273079395L286.0322665277778,99.08114662170408L288.9220651388889,103.1585287839174L291.81186375000004,94.57417605221269L294.7016623611112,98.46426283717153L297.59146097222225,97.93229115903375L300.4812595833334,102.2132601380348L303.37105819444446,101.8403827935457L306.26085680555553,95.95639234185217L309.1506554166667,90.09141793251035L312.0404540277778,87.78235917687414L314.93025263888893,99.71996767222879L317.82005125,94.35575840771196L320.70984986111114,107.99722676873205L323.5996484722222,102.14506080150602L326.4894470833334,98.86143689751623L329.3792456944445,94.12765016555784L332.2690443055556,97.74530475735662L335.1588429166667,106.61765081584451L338.0486415277778,104.62402803599832L340.93844013888895,96.635183596611L343.82823875,96.60928582549093L346.71803736111116,99.75142700374124L349.60783597222223,100.50001865029333L352.49763458333337,99.96006978452203L355.38743319444444,97.67165621519086L358.27723180555563,98.46108881533144L361.1670304166667,101.66836766302583L364.05682902777784,101.14263167381284L366.9466276388889,93.1136484980583L369.83642625000005,103.72631354033945L372.7262248611111,99.73662426471708L375.61602347222225,105.06058243811128L378.5058220833334,98.66852378249166L381.39562069444446,98.94477603733537L384.2854193055556,99.85175980031488L387.17521791666667,93.57857247591016L390.06501652777786,101.8651851058006L392.95481513888893,103.89144694209097L395.84461375000006,116.22679127156732L398.73441236111114,100.34671058654783L401.6242109722223,112.39001681804655L404.51400958333335,98.8878402650356L407.4038081944445,101.74856086969373L410.2936068055556,94.12725692391393L413.1834054166667,102.37125901281831L416.0732040277778,108.84918479025362L418.9630026388889,110.50388945043085L421.8528012500001,99.52418951094148L424.74259986111116,116.9082790404558L427.6323984722223,98.62450880706308L430.52219708333337,107.63061320185659L433.4119956944445,107.4465480238199L436.3017943055556,106.37926211357114L439.1915929166667,107.47410302758215L442.08139152777784,110.98937434852121L444.9711901388889,96.38241348564623L447.86098875000005,106.90909905135629L450.7507873611111,112.0453686058521L453.64058597222225,105.38172041773794L456.5303845833334,102.7849773108959L459.4201831944445,103.84577473402021L462.3099818055556,103.86855466067789L465.1997804166667,112.97827822864053L468.0895790277778,104.80208223462103L470.97937763888893,107.93200483322141L473.86917625000007,119.60597289502618L476.75897486111114,111.00928922891615L479.6487734722223,107.0033366024494L482.53857208333335,105.63210299015043L485.4283706944445,111.87079740464685L488.3181693055556,107.96641347706316L491.20796791666675,104.88168557882307L494.0977665277778,115.22804176211355L496.98756513888895,107.96613259017465L499.87736375000003,116.48354997634885L502.7671623611111,107.53230279088018L505.6569609722223,107.48053533732889L508.54675958333337,108.31957256197927L511.4365581944445,107.17490231394765L514.3263568055556,105.05521749854086L517.2161554166667,106.18269746899603L520.1059540277779,114.4648720860481L522.9957526388889,111.21366252899168L525.88555125,117.18756487369535L528.7753498611112,102.65436490774152L531.6651484722223,102.24646096825597L534.5549470833334,105.83310564756391L537.4447456944445,110.44900415241716L540.3345443055556,108.6872815877199L543.2243429166667,103.08979576230047L546.1141415277779,117.52215733528135L549.0039401388889,115.81023601591585L551.89373875,118.21782989203928L554.7835373611111,126.14822176992891L557.6733359722223,118.48846440911291L560.5631345833334,118.61098726987836L563.4529331944445,103.82549470067022L566.3427318055557,105.82591494321821L569.2325304166667,114.27280163168905L572.1223290277778,116.22120162248609L575.012127638889,97.3672310054302L577.9019262500001,112.05064927935598L580.7917248611111,108.9871002525091L583.6815234722222,112.85999675989149L586.5713220833334,115.22986752688882L589.4611206944445,109.7505789041519L592.3509193055556,111.9757648348808L595.2407179166668,110.82766776680944L598.1305165277779,107.64858996272085L601.0203151388889,105.92855101227758L603.91011375,115.06846992075441L606.7999123611112,117.9162416398525L609.6897109722223,111.31113027930257L612.5795095833333,120.48166585862634L615.4693081944445,113.96539902091024L618.3591068055556,116.71949496269224L621.2489054166667,107.2021202534437L624.1387040277777,108.64823831021783L627.028502638889,111.29320969581602L629.9183012500001,131.68242377936838L632.8080998611111,113.39194034934042L635.6978984722223,105.6369904220104L638.5876970833334,120.73890207111833L641.4774956944445,121.32612420022485L644.3672943055556,116.62357209026811L647.2570929166667,106.81845685243604L650.1468915277778,113.90950253009794L653.036690138889,119.0280200332403L655.92648875,119.74223112463949L658.8162873611112,106.32218589782713L661.7060859722224,122.55750423073766L664.5958845833334,119.18180560469625L667.4856831944445,117.02459430098531L670.3754818055556,115.71849835813043L673.2652804166668,125.60470564067361L676.1550790277778,115.01069148778913L679.0448776388889,107.47671527564523L681.93467625,116.32880938947199L684.8244748611112,109.66718358695505L687.7142734722222,106.31092233359811L690.6040720833334,121.15983916223047L693.4938706944446,111.15341229140756L696.3836693055557,115.13588277399538L699.2734679166667,128.4180406272411L702.1632665277779,113.79838367700575L705.053065138889,123.91837311685083L707.94286375,125.0216125488281L710.8326623611111,112.67343168854711L713.7224609722223,120.3147909581661L716.6122595833334,121.12076779603956L719.5020581944444,113.65850200653074L722.3918568055557,122.05216062963007L725.2816554166668,118.65121027231214L728.1714540277779,128.008928874135L731.061252638889,111.81751316189764L733.9510512500001,124.79330768585203L736.8408498611112,126.24627938270567L739.7306484722222,130.80212427079675L742.6204470833334,121.29056392014024L745.5102456944445,119.12810003161428L748.4000443055556,125.2828654438257L751.2898429166667,131.04003546535967L754.1796415277778,110.45172875523565L757.069440138889,126.82810848355291L759.9592387500002,114.8170199781656L762.8490373611112,117.34893439114092L765.7388359722223,120.82901058495042L768.6286345833335,122.37287727892397L771.5184331944445,122.35324328541753L774.4082318055556,119.16101997494695L777.2980304166667,123.66636140048502L780.1878290277779,112.12727522253988L783.0776276388889,113.93298467397688L785.96742625,111.04004634320734L788.8572248611113,124.69685112833974L791.7470234722224,131.9177789032459L794.6368220833334,119.8862418323755L797.5266206944445,122.65213502347467L800.4164193055557,123.48926221728323L803.3062179166667,127.65984264910219L806.1960165277778,129.95339644849298L809.085815138889,122.88223756253717L811.9756137500001,115.45533543229101L814.8654123611111,116.5151216626167L817.7552109722222,113.69468023777006L820.6450095833335,127.76680437624452L823.5348081944446,111.19871934652326L826.4246068055556,124.85378263294695L829.3144054166668,124.07409680783746L832.2042040277779,131.36870121359823L835.0940026388889,106.48540926873682L837.98380125,115.50581080615518L840.8735998611112,126.61648830175398L843.7633984722223,125.08239647150037L846.6531970833333,113.89259313941L849.5429956944445,121.96865295767782L852.4327943055557,125.37488398849962L855.3225929166668,126.76771780252454L858.2123915277779,120.24560851752756L861.102190138889,124.63390437662599L863.9919887500001,129.2150571733713L866.8817873611112,129.37842098772524L869.7715859722223,115.3435986280441L872.6613845833334,133.37232356667516L875.5511831944445,134.4799448341131L878.4409818055556,125.19028512537477L881.3307804166667,126.42644023299215L884.2205790277778,131.44133856296537L887.1103776388891,121.12399799525735L890.0001762500001,120.6109861820936L892.8899748611112,115.8700087457895L895.7797734722224,130.67288821339605L898.6695720833334,134.67440282702444L901.5593706944445,121.41890113949773L904.4491693055556,119.06386120021341L907.3389679166668,122.1244047373533L910.2287665277778,134.77310647964475L913.1185651388889,129.58740083277223L916.0083637500001,128.4938239097595L918.8981623611113,111.18762431442735L921.7879609722223,120.40484329462049L924.6777595833335,134.39868425726888L927.5675581944446,126.15861458480356" style="fill: none;" fill="none"></path></g></g></g></g></g></g><g transform="translate(51, 377)" clip-path="url(#clip_1)"><clipPath id="clip_1"><rect width="1040" height="23"></rect></clipPath><g><g><line x1="0" y1="0" x2="0" y2="5" style="visibility: inherit;" fill="rgb(0, 0, 0)" stroke="rgb(204, 204, 204)" stroke-width="1px"></line><line x1="115.59194444444445" y1="0" x2="115.59194444444445" y2="5" style="visibility: inherit;" fill="rgb(0, 0, 0)" stroke="rgb(204, 204, 204)" stroke-width="1px"></line><line x1="231.1838888888889" y1="0" x2="231.1838888888889" y2="5" style="visibility: inherit;" fill="rgb(0, 0, 0)" stroke="rgb(204, 204, 204)" stroke-width="1px"></line><line x1="346.77583333333337" y1="0" x2="346.77583333333337" y2="5" style="visibility: inherit;" fill="rgb(0, 0, 0)" stroke="rgb(204, 204, 204)" stroke-width="1px"></line><line x1="462.3677777777778" y1="0" x2="462.3677777777778" y2="5" style="visibility: inherit;" fill="rgb(0, 0, 0)" stroke="rgb(204, 204, 204)" stroke-width="1px"></line><line x1="577.9597222222224" y1="0" x2="577.9597222222224" y2="5" style="visibility: inherit;" fill="rgb(0, 0, 0)" stroke="rgb(204, 204, 204)" stroke-width="1px"></line><line x1="693.5516666666667" y1="0" x2="693.5516666666667" y2="5" style="visibility: inherit;" fill="rgb(0, 0, 0)" stroke="rgb(204, 204, 204)" stroke-width="1px"></line><line x1="809.1436111111112" y1="0" x2="809.1436111111112" y2="5" style="visibility: inherit;" fill="rgb(0, 0, 0)" stroke="rgb(204, 204, 204)" stroke-width="1px"></line><line x1="924.7355555555556" y1="0" x2="924.7355555555556" y2="5" style="visibility: inherit;" fill="rgb(0, 0, 0)" stroke="rgb(204, 204, 204)" stroke-width="1px"></line><line x1="1040.3275" y1="0" x2="1040.3275" y2="5" style="visibility: inherit;" fill="rgb(0, 0, 0)" stroke="rgb(204, 204, 204)" stroke-width="1px"></line></g><g transform="translate(0, 8)"><text x="0" y="0" dx="0em" dy="0.95em" style="text-anchor: middle; visibility: hidden; font-family: Roboto, sans-serif; font-size: 12px; font-weight: 200;" fill="rgb(255, 255, 255)" stroke="none" stroke-width="1px">-2k</text><text x="115.59194444444445" y="0" dx="0em" dy="0.95em" style="text-anchor: middle; visibility: inherit; font-family: Roboto, sans-serif; font-size: 12px; font-weight: 200;" fill="rgb(255, 255, 255)" stroke="none" stroke-width="1px">0</text><text x="231.1838888888889" y="0" dx="0em" dy="0.95em" style="text-anchor: middle; visibility: inherit; font-family: Roboto, sans-serif; font-size: 12px; font-weight: 200;" fill="rgb(255, 255, 255)" stroke="none" stroke-width="1px">2k</text><text x="346.77583333333337" y="0" dx="0em" dy="0.95em" style="text-anchor: middle; visibility: inherit; font-family: Roboto, sans-serif; font-size: 12px; font-weight: 200;" fill="rgb(255, 255, 255)" stroke="none" stroke-width="1px">4k</text><text x="462.3677777777778" y="0" dx="0em" dy="0.95em" style="text-anchor: middle; visibility: inherit; font-family: Roboto, sans-serif; font-size: 12px; font-weight: 200;" fill="rgb(255, 255, 255)" stroke="none" stroke-width="1px">6k</text><text x="577.9597222222224" y="0" dx="0em" dy="0.95em" style="text-anchor: middle; visibility: inherit; font-family: Roboto, sans-serif; font-size: 12px; font-weight: 200;" fill="rgb(255, 255, 255)" stroke="none" stroke-width="1px">8k</text><text x="693.5516666666667" y="0" dx="0em" dy="0.95em" style="text-anchor: middle; visibility: inherit; font-family: Roboto, sans-serif; font-size: 12px; font-weight: 200;" fill="rgb(255, 255, 255)" stroke="none" stroke-width="1px">10k</text><text x="809.1436111111112" y="0" dx="0em" dy="0.95em" style="text-anchor: middle; visibility: inherit; font-family: Roboto, sans-serif; font-size: 12px; font-weight: 200;" fill="rgb(255, 255, 255)" stroke="none" stroke-width="1px">12k</text><text x="924.7355555555556" y="0" dx="0em" dy="0.95em" style="text-anchor: middle; visibility: inherit; font-family: Roboto, sans-serif; font-size: 12px; font-weight: 200;" fill="rgb(255, 255, 255)" stroke="none" stroke-width="1px">14k</text><text x="1040.3275" y="0" dx="0em" dy="0.95em" style="text-anchor: middle; visibility: hidden; font-family: Roboto, sans-serif; font-size: 12px; font-weight: 200;" fill="rgb(255, 255, 255)" stroke="none" stroke-width="1px">16k</text></g><line x1="0" y1="0" x2="1040.3275" y2="0" fill="rgb(0, 0, 0)" stroke="rgb(204, 204, 204)" stroke-width="1px"></line></g></g></g></g></svg>